<?xml version="1.0" encoding="utf-8"?>
<!-- Generator: Adobe Illustrator 24.1.2, SVG Export Plug-In . SVG Version: 6.00 Build 0)  -->
<svg version="1.1" id="Layer_1" xmlns="http://www.w3.org/2000/svg" xmlns:xlink="http://www.w3.org/1999/xlink" x="0px" y="0px"
	 viewBox="0 0 591.29 591.38" style="enable-background:new 0 0 591.29 591.38;" xml:space="preserve">
<style type="text/css">
	.st0{fill:#FFFFFF;}
	.st1{fill:#FF0000;}
</style>
<g>
	<circle class="st0" cx="295.6" cy="295.69" r="295.69"/>
</g>
<g>
	<g>
		<path d="M44.66,434.75l1.57-91.03h17.19l12.92,63.05l13.49-63.05h16.63l1.69,91.03H95.79l-1.35-63.27l-12.92,63.27h-10
			l-13.15-63.5l-1.24,63.5H44.66z"/>
		<path d="M146.36,435.99c-6.45,0-11.58-1.2-15.4-3.6c-3.82-2.4-6.56-5.84-8.21-10.34s-2.47-9.81-2.47-15.96v-34.05
			c0-6.14,0.82-11.41,2.47-15.79s4.38-7.74,8.21-10.06c3.82-2.32,8.95-3.48,15.4-3.48c6.59,0,11.78,1.16,15.56,3.48
			c3.78,2.32,6.52,5.68,8.2,10.06c1.69,4.38,2.53,9.65,2.53,15.79v34.17c0,6.07-0.84,11.33-2.53,15.79
			c-1.69,4.46-4.42,7.91-8.2,10.34C158.14,434.77,152.95,435.99,146.36,435.99z M146.36,423.74c2.77,0,4.81-0.6,6.13-1.8
			c1.31-1.2,2.19-2.85,2.64-4.95c0.45-2.1,0.67-4.38,0.67-6.85v-41.92c0-2.55-0.22-4.83-0.67-6.86c-0.45-2.02-1.33-3.61-2.64-4.78
			c-1.31-1.16-3.35-1.74-6.13-1.74c-2.62,0-4.61,0.58-5.96,1.74c-1.35,1.16-2.25,2.75-2.7,4.78c-0.45,2.02-0.67,4.31-0.67,6.86
			v41.92c0,2.47,0.21,4.76,0.62,6.85c0.41,2.1,1.29,3.75,2.64,4.95C141.64,423.14,143.67,423.74,146.36,423.74z"/>
		<path d="M193.56,434.75v-78.78h-14.5v-12.25h45.4v12.25H210.2v78.78H193.56z"/>
		<path d="M257.06,435.99c-6.44,0-11.58-1.2-15.4-3.6c-3.82-2.4-6.56-5.84-8.2-10.34c-1.65-4.5-2.47-9.81-2.47-15.96v-34.05
			c0-6.14,0.82-11.41,2.47-15.79c1.65-4.38,4.38-7.74,8.2-10.06c3.82-2.32,8.95-3.48,15.4-3.48c6.59,0,11.78,1.16,15.57,3.48
			c3.78,2.32,6.52,5.68,8.2,10.06s2.53,9.65,2.53,15.79v34.17c0,6.07-0.84,11.33-2.53,15.79c-1.69,4.46-4.42,7.91-8.2,10.34
			C268.84,434.77,263.65,435.99,257.06,435.99z M257.06,423.74c2.77,0,4.81-0.6,6.13-1.8c1.31-1.2,2.19-2.85,2.64-4.95
			c0.45-2.1,0.67-4.38,0.67-6.85v-41.92c0-2.55-0.22-4.83-0.67-6.86c-0.45-2.02-1.33-3.61-2.64-4.78c-1.31-1.16-3.35-1.74-6.13-1.74
			c-2.62,0-4.61,0.58-5.96,1.74c-1.35,1.16-2.25,2.75-2.7,4.78c-0.45,2.02-0.67,4.31-0.67,6.86v41.92c0,2.47,0.21,4.76,0.62,6.85
			c0.41,2.1,1.29,3.75,2.64,4.95C252.34,423.14,254.36,423.74,257.06,423.74z"/>
		<path d="M295.38,434.75l1.57-91.03h17.19l12.92,63.05l13.49-63.05h16.63l1.69,91.03h-12.36l-1.35-63.27l-12.92,63.27h-10
			l-13.15-63.5l-1.24,63.5H295.38z"/>
		<path d="M372.14,434.75v-91.03h16.41v91.03H372.14z"/>
		<path d="M427.09,435.99c-6.67,0-11.89-1.31-15.68-3.93c-3.78-2.62-6.43-6.2-7.92-10.73c-1.5-4.53-2.25-9.76-2.25-15.68v-32.48
			c0-6.22,0.75-11.61,2.25-16.18c1.5-4.57,4.14-8.09,7.92-10.56c3.78-2.47,9.01-3.71,15.68-3.71c6.29,0,11.22,1.07,14.78,3.2
			c3.56,2.14,6.09,5.19,7.59,9.16c1.5,3.97,2.25,8.58,2.25,13.82v7.64h-15.96v-7.87c0-2.55-0.13-4.87-0.39-6.97
			c-0.26-2.1-0.97-3.76-2.14-5c-1.16-1.24-3.17-1.85-6.01-1.85c-2.85,0-4.93,0.66-6.24,1.97c-1.31,1.31-2.15,3.07-2.53,5.28
			c-0.38,2.21-0.56,4.7-0.56,7.47v39.56c0,3.3,0.26,6.01,0.79,8.15c0.52,2.14,1.48,3.75,2.87,4.83c1.39,1.09,3.28,1.63,5.67,1.63
			c2.77,0,4.74-0.66,5.9-1.97c1.16-1.31,1.89-3.05,2.19-5.23c0.3-2.17,0.45-4.61,0.45-7.3v-8.2h15.96v7.3
			c0,5.39-0.71,10.17-2.14,14.33c-1.42,4.16-3.92,7.42-7.47,9.78C438.53,434.81,433.53,435.99,427.09,435.99z"/>
		<path d="M463.5,434.75v-91.03h16.52v38.1h18.54v-38.1h16.63v91.03h-16.63v-41.13h-18.54v41.13H463.5z"/>
		<path d="M529.58,434.75v-91.03h16.41v91.03H529.58z"/>
	</g>
	<g>
		<path d="M235.63,328.81l2.88-58.61c0,0-5.21-4.39-9.48-7.18s-9.94-12.82-9.94-17.94c0-5.13,0.7-49.17,1.4-54.06
			c0.7-4.89,18.87-20.74,18.87-20.74s-1.4-5.13-1.4-10.72c0-5.59,4.43-6.76,4.43-6.76l0.93-17.01l13.28-0.23l4.89-11.18l4.66,11.18
			h11.88l5.83-11.18l5.36,11.65h13.98l4.89-11.65l4.89,11.42l12.68,0.58l5.5-12l6.76,11.88h10.95V150c3.5,0,5.83,6.52,6.38,9.79
			c0.55,3.26-0.09,61.98-0.09,69.44c0,7.46,0.7,19.34-1.86,27.26s-9.79,9.79-9.79,9.79s3.73,54.99,3.73,58.25
			c0,3.26-0.7,4.19-2.8,4.19s-8.85,0-10.95,0c-2.1,0-3.73,0.7-3.73-1.86s-3.03-67.81-3.03-67.81c6.29-0.47,11.88-9.55,11.88-17.01
			c0-7.46,0-37.05,0-37.05s-3.26,1.86-9.79,1.86c-6.52,0-9.32-3.73-9.32-3.73s-0.93,3.26-9.32,3.26c-8.39,0-8.62-3.26-10.49-3.03
			c-1.86,0.23-9.79,2.8-9.79,2.8s3.5,3.03,9.55,9.55c6.06,6.52,7.92,21.9,7.92,26.56c0,4.66-4.19,6.52-6.06,6.52
			s-5.36-1.4-5.59-5.13s0.7-4.43-1.63-12.58c-2.33-8.16-12.12-19.57-12.12-19.57s-1.4,0.47-6.99,4.89
			c-5.59,4.43-8.16,4.66-10.72,1.17c-2.56-3.5,3.03-7.22,10.72-14.45c7.69-7.22,11.65-7.92,20.5-9.79s10.72-7.22,10.72-10.72
			s-5.36-11.42-7.92-11.18c-2.56,0.23-38.91,7.46-40.78,8.16s-20.97,19.34-20.97,20.5s-0.23,33.32,3.03,44.74
			c3.26,11.42,19.11,11.18,19.11,11.18l-5.59,72.7L235.63,328.81z M257.06,167.24l15.61-2.33c0,0-2.33-8.16-5.59-9.09
			c-3.26-0.93-9.09,0.7-10.02,3.03C256.13,161.19,257.06,167.24,257.06,167.24z M278.57,163.28h15.46c0,0-0.31-4.26-3.34-6.13
			c-3.03-1.86-7.28-1.44-9.09,0C278.57,159.56,278.57,163.28,278.57,163.28z M302.97,161.4c0,0,4.19-0.45,6.52,3.98
			c2.33,4.43,3.73,7.69,4.19,11.88c0.47,4.19-0.7,10.25-0.93,11.88c-0.23,1.63-2.33,4.43-1.63,4.89c0.7,0.47,4.66-0.23,4.89-2.1
			s1-13.45,1-18.81s0.75-12.65-3.76-16.23c-2.86-2.27-7.96-1.43-9.12,0.67C302.97,159.67,302.97,161.4,302.97,161.4z M323.01,180.53
			c0,8.39-0.93,11.81,2.33,13.65c3.26,1.84,10.02,1.96,11.42-2.12c1.4-4.08,1.28-3.84,1.28-10.83c0-6.99,0-15.61,0-17.36
			c0-1.75-1.05-7.08-5.08-6.99c-4.08,0.09-8.04-0.97-9.32,4.53C322.36,166.89,323.01,173.65,323.01,180.53z"/>
	</g>
	<g>
		<polygon class="st1" points="291.89,153.13 297.63,149.14 303.55,153.53 300.46,147.05 303.45,140.57 297.32,144.66 
			291.49,140.57 294.54,146.85 		"/>
	</g>
</g>
</svg>
