<?xml version="1.0" encoding="utf-8"?>
<!-- Generator: Adobe Illustrator 25.1.0, SVG Export Plug-In . SVG Version: 6.00 Build 0)  -->
<svg version="1.1" id="Layer_1" xmlns="http://www.w3.org/2000/svg" xmlns:xlink="http://www.w3.org/1999/xlink" x="0px" y="0px"
	 viewBox="0 0 300 200" style="enable-background:new 0 0 300 200;" xml:space="preserve">
<style type="text/css">
	.st0{fill:#1F00B7;}
	.st1{fill:#FFFFFF;}
</style>
<g>
	<g>
		<path class="st0" d="M0,200.6l1-54.5h10.3l7.7,37.7l8.1-37.7H37l1,54.5h-7.4l-0.8-37.8l-7.7,37.8h-6l-7.9-38l-0.8,38H0z"/>
		<path class="st0" d="M60.9,201.4c-3.9,0-6.9-0.7-9.2-2.1s-3.9-3.5-4.9-6.2s-1.5-5.9-1.5-9.5v-20.5c0-3.7,0.5-6.8,1.5-9.4
			c1-2.6,2.6-4.6,4.9-6c2.3-1.4,5.4-2.1,9.2-2.1c4,0,7.1,0.7,9.3,2.1s3.9,3.4,4.9,6s1.5,5.8,1.5,9.4v20.4c0,3.7-0.5,6.8-1.5,9.4
			c-1,2.7-2.6,4.7-4.9,6.2S64.8,201.4,60.9,201.4z M60.9,194c1.7,0,2.9-0.4,3.7-1.1c0.8-0.7,1.3-1.7,1.6-2.9
			c0.3-1.3,0.4-2.6,0.4-4.1v-25.1c0-1.5-0.2-2.9-0.4-4.1c-0.3-1.2-0.8-2.2-1.6-2.8c-0.8-0.7-2-1.1-3.7-1.1c-1.6,0-2.7,0.4-3.6,1.1
			c-0.8,0.7-1.4,1.6-1.6,2.8c-0.3,1.2-0.4,2.6-0.4,4.1v25.1c0,1.5,0.1,2.8,0.4,4.1c0.3,1.3,0.8,2.2,1.6,2.9
			C58.1,193.7,59.3,194,60.9,194z"/>
		<path class="st0" d="M89.1,200.6v-47.1h-8.7v-7.3h27.1v7.3H99v47.1H89.1z"/>
		<path class="st0" d="M127.1,201.4c-3.9,0-6.9-0.7-9.2-2.1c-2.3-1.4-3.9-3.5-4.9-6.2s-1.5-5.9-1.5-9.5v-20.5c0-3.7,0.5-6.8,1.5-9.4
			c1-2.6,2.6-4.6,4.9-6s5.4-2.1,9.2-2.1c4,0,7.1,0.7,9.3,2.1c2.3,1.4,3.9,3.4,4.9,6s1.5,5.8,1.5,9.4v20.4c0,3.7-0.5,6.8-1.5,9.4
			c-1,2.7-2.6,4.7-4.9,6.2S131.1,201.4,127.1,201.4z M127.1,194c1.7,0,2.9-0.4,3.7-1.1s1.3-1.7,1.6-2.9c0.3-1.2,0.4-2.6,0.4-4.1
			v-25.1c0-1.5-0.2-2.9-0.4-4.1c-0.3-1.2-0.8-2.2-1.6-2.8c-0.8-0.7-2-1.1-3.7-1.1c-1.6,0-2.7,0.4-3.6,1.1c-0.8,0.7-1.4,1.6-1.6,2.8
			c-0.3,1.2-0.4,2.6-0.4,4.1v25.1c0,1.5,0.1,2.8,0.4,4.1c0.3,1.3,0.8,2.2,1.6,2.9C124.3,193.7,125.5,194,127.1,194z"/>
		<path class="st0" d="M150,200.6l1-54.5h10.3l7.7,37.7l8.1-37.7h9.9l1,54.5h-7.4l-0.8-37.8l-7.7,37.8h-6l-7.9-38l-0.8,38H150z"/>
		<path class="st0" d="M195.9,200.6v-54.4h9.8v54.5L195.9,200.6L195.9,200.6z"/>
		<path class="st0" d="M228.8,201.4c-4,0-7.1-0.8-9.4-2.3c-2.3-1.6-3.9-3.7-4.7-6.4c-0.9-2.7-1.4-5.8-1.4-9.4V164
			c0-3.7,0.5-6.9,1.4-9.7c0.9-2.7,2.5-4.8,4.7-6.3c2.3-1.5,5.4-2.2,9.4-2.2c3.8,0,6.7,0.7,8.8,1.9c2.1,1.3,3.7,3.1,4.6,5.5
			c0.9,2.4,1.4,5.1,1.4,8.3v4.6h-9.5v-4.9c0-1.5-0.1-2.9-0.3-4.2s-0.6-2.2-1.3-3s-1.9-1.1-3.6-1.1s-2.9,0.4-3.8,1.2
			c-0.8,0.8-1.3,1.8-1.5,3.1c-0.2,1.3-0.4,2.8-0.4,4.5v23.7c0,2,0.2,3.6,0.5,4.9s0.9,2.2,1.7,2.9s2,1,3.4,1c1.7,0,2.8-0.4,3.6-1.2
			c0.7-0.8,1.1-1.8,1.3-3.1c0.2-1.3,0.3-2.7,0.3-4.4v-4.9h9.5v4.4c0,3.2-0.4,6.1-1.3,8.6c-0.9,2.5-2.3,4.5-4.5,5.8
			C235.6,200.7,232.6,201.4,228.8,201.4z"/>
		<path class="st0" d="M250.6,200.6v-54.4h9.9V169h11.1v-22.8h9.9v54.5h-9.9v-24.6h-11.1v24.6L250.6,200.6L250.6,200.6z"/>
		<path class="st0" d="M290.1,200.6v-54.4h9.8v54.5L290.1,200.6L290.1,200.6z"/>
	</g>
	<g>
		<path class="st0" d="M114.3,137.3l1.7-35c0,0-3.1-2.6-5.7-4.3s-5.9-7.7-5.9-10.8s0.4-29.4,0.9-32.4s11.3-12.4,11.3-12.4
			s-0.9-3.1-0.9-6.4c0-3.3,2.6-4.1,2.6-4.1l0.6-10.2l8-0.2l2.9-6.7l2.8,6.7h7.1l3.5-6.7l3.2,6.9h8.4l2.9-6.9l2.9,6.8l7.6,0.4
			l3.3-7.2l4.1,7.1h6.5v8.2c2.1,0,3.5,3.9,3.8,5.8s-0.1,37.1-0.1,41.5s0.4,11.6-1.1,16.3s-5.8,5.8-5.8,5.8s2.2,32.9,2.2,34.8
			s-0.4,2.5-1.7,2.5s-5.3,0-6.5,0c-1.3,0-2.2,0.4-2.2-1.1s-1.8-40.6-1.8-40.6c3.8-0.3,7.1-5.7,7.1-10.2s0-22.2,0-22.2
			s-1.9,1.1-5.8,1.1c-3.9,0-5.6-2.2-5.6-2.2s-0.6,1.9-5.6,1.9s-5.2-1.9-6.3-1.8c-1.1,0.2-5.8,1.7-5.8,1.7s2.1,1.8,5.7,5.7
			c3.6,3.9,4.7,13.1,4.7,15.9c0,2.8-2.5,3.9-3.6,3.9s-3.2-0.9-3.3-3.1c-0.2-2.2,0.4-2.6-1-7.5s-7.3-11.7-7.3-11.7s-0.9,0.3-4.2,2.9
			s-4.9,2.8-6.4,0.7s1.8-4.3,6.4-8.6c4.6-4.3,6.9-4.7,12.3-5.8c5.3-1.1,6.4-4.3,6.4-6.4s-3.2-6.8-4.7-6.7
			c-1.5,0.2-23.3,4.5-24.4,4.9S115,59.4,115,60.1s-0.2,19.9,1.8,26.8c1.9,6.8,11.4,6.7,11.4,6.7l-3.3,43.5L114.3,137.3z M127.1,40.6
			l9.3-1.4c0,0-1.4-4.9-3.3-5.4c-1.9-0.6-5.4,0.4-6,1.8C126.5,37,127.1,40.6,127.1,40.6z M140,38.2h9.2c0,0-0.2-2.5-2-3.7
			c-1.8-1.1-4.4-0.9-5.4,0C140,36,140,38.2,140,38.2z M154.6,37.1c0,0,2.5-0.3,3.9,2.4c1.4,2.6,2.2,4.6,2.5,7.1s-0.4,6.1-0.6,7.1
			c-0.2,1-1.4,2.6-1,2.9s2.8-0.2,2.9-1.3s0.7-8,0.7-11.2s0.5-7.6-2.2-9.7c-1.7-1.4-4.8-0.9-5.5,0.4
			C154.6,36.1,154.6,37.1,154.6,37.1z M166.6,48.6c0,5-0.6,7.1,1.4,8.2s6,1.2,6.8-1.3c0.9-2.4,0.8-2.3,0.8-6.5s0-9.3,0-10.4
			c0-1.1-0.6-4.3-3-4.2s-4.8-0.6-5.6,2.7S166.6,44.4,166.6,48.6z"/>
	</g>
	<g>
		<polygon class="st1" points="147.9,32.2 151.4,29.8 154.9,32.4 153.1,28.5 154.8,24.7 151.2,27.1 147.7,24.7 149.5,28.4 		"/>
	</g>
</g>
</svg>
