<?xml version="1.0" encoding="utf-8"?>
<!-- Generator: Adobe Illustrator 25.1.0, SVG Export Plug-In . SVG Version: 6.00 Build 0)  -->
<svg version="1.1" id="Layer_1" xmlns="http://www.w3.org/2000/svg" xmlns:xlink="http://www.w3.org/1999/xlink" x="0px" y="0px"
	 viewBox="0 0 300 200" style="enable-background:new 0 0 300 200;" xml:space="preserve">
<style type="text/css">
	.st0{fill:#1F00B7;}
	.st1{fill:#FFFFFF;}
</style>
<g>
	<g>
		<path class="st0" d="M42,199.4l0.7-39.3h7.4l5.5,27.2l5.8-27.2h7.1l0.7,39.3H64l-0.6-27.2l-5.5,27.2h-4.3l-5.7-27.4l-0.6,27.4H42z
			"/>
		<path class="st0" d="M85.9,200c-2.8,0-5-0.5-6.6-1.5s-2.8-2.5-3.5-4.5c-0.7-1.9-1.1-4.2-1.1-6.8v-14.8c0-2.7,0.4-4.9,1.1-6.8
			c0.7-1.9,1.9-3.3,3.5-4.3s3.9-1.5,6.6-1.5c2.9,0,5.1,0.5,6.7,1.5s2.8,2.4,3.5,4.3c0.7,1.9,1.1,4.2,1.1,6.8v14.7
			c0,2.7-0.4,4.9-1.1,6.8c-0.7,1.9-1.9,3.4-3.5,4.5S88.7,200,85.9,200z M85.9,194.7c1.2,0,2.1-0.3,2.7-0.8c0.6-0.5,0.9-1.2,1.2-2.1
			c0.2-0.9,0.3-1.9,0.3-3v-18.1c0-1.1-0.1-2.1-0.3-3c-0.2-0.9-0.6-1.6-1.2-2c-0.6-0.5-1.4-0.8-2.7-0.8c-1.2,0-1.9,0.3-2.6,0.8
			c-0.6,0.5-1,1.2-1.2,2c-0.2,0.9-0.3,1.9-0.3,3v18.1c0,1.1,0.1,2,0.3,3c0.2,0.9,0.6,1.6,1.2,2.1C83.8,194.5,84.7,194.7,85.9,194.7z
			"/>
		<path class="st0" d="M106.2,199.4v-33.9h-6.3v-5.3h19.5v5.3h-6.1v33.9H106.2z"/>
		<path class="st0" d="M133.5,200c-2.8,0-5-0.5-6.6-1.5c-1.7-1-2.8-2.5-3.5-4.5c-0.7-1.9-1.1-4.2-1.1-6.8v-14.8
			c0-2.7,0.4-4.9,1.1-6.8c0.7-1.9,1.9-3.3,3.5-4.3c1.7-1,3.9-1.5,6.6-1.5c2.9,0,5.1,0.5,6.7,1.5c1.7,1,2.8,2.4,3.5,4.3
			c0.7,1.9,1.1,4.2,1.1,6.8v14.7c0,2.7-0.4,4.9-1.1,6.8c-0.7,1.9-1.9,3.4-3.5,4.5S136.4,200,133.5,200z M133.5,194.7
			c1.2,0,2.1-0.3,2.7-0.8c0.6-0.5,0.9-1.2,1.2-2.1c0.2-0.9,0.3-1.9,0.3-3v-18.1c0-1.1-0.1-2.1-0.3-3c-0.2-0.9-0.6-1.6-1.2-2
			c-0.6-0.5-1.4-0.8-2.7-0.8c-1.2,0-1.9,0.3-2.6,0.8c-0.6,0.5-1,1.2-1.2,2c-0.2,0.9-0.3,1.9-0.3,3v18.1c0,1.1,0.1,2,0.3,3
			c0.2,0.9,0.6,1.6,1.2,2.1C131.5,194.5,132.4,194.7,133.5,194.7z"/>
		<path class="st0" d="M150,199.4l0.7-39.3h7.4l5.5,27.2l5.8-27.2h7.1l0.7,39.3h-5.3l-0.6-27.2l-5.5,27.2h-4.3l-5.7-27.4l-0.6,27.4
			H150z"/>
		<path class="st0" d="M183.1,199.4v-39.2h7.1v39.3L183.1,199.4L183.1,199.4z"/>
		<path class="st0" d="M206.8,200c-2.9,0-5.1-0.6-6.8-1.7c-1.7-1.2-2.8-2.7-3.4-4.6c-0.6-1.9-1-4.2-1-6.8v-13.9c0-2.7,0.4-5,1-7
			c0.6-1.9,1.8-3.5,3.4-4.5c1.7-1.1,3.9-1.6,6.8-1.6c2.7,0,4.8,0.5,6.3,1.4c1.5,0.9,2.7,2.2,3.3,4c0.6,1.7,1,3.7,1,6v3.3h-6.8V171
			c0-1.1-0.1-2.1-0.2-3s-0.4-1.6-0.9-2.2c-0.5-0.6-1.4-0.8-2.6-0.8s-2.1,0.3-2.7,0.9c-0.6,0.6-0.9,1.3-1.1,2.2
			c-0.1,0.9-0.3,2-0.3,3.2v17.1c0,1.4,0.1,2.6,0.4,3.5s0.6,1.6,1.2,2.1c0.6,0.5,1.4,0.7,2.4,0.7c1.2,0,2-0.3,2.6-0.9
			c0.5-0.6,0.8-1.3,0.9-2.2c0.1-0.9,0.2-1.9,0.2-3.2V185h6.8v3.2c0,2.3-0.3,4.4-0.9,6.2c-0.6,1.8-1.7,3.2-3.2,4.2
			C211.7,199.5,209.5,200,206.8,200z"/>
		<path class="st0" d="M222.5,199.4v-39.2h7.1v16.4h8v-16.4h7.1v39.3h-7.1v-17.7h-8v17.7L222.5,199.4L222.5,199.4z"/>
		<path class="st0" d="M250.9,199.4v-39.2h7.1v39.3L250.9,199.4L250.9,199.4z"/>
	</g>
	<g>
		<path class="st0" d="M124.3,153.8l1.2-25.2c0,0-2.2-1.9-4.1-3.1c-1.9-1.2-4.2-5.5-4.2-7.8c0-2.2,0.3-21.2,0.6-23.3
			c0.4-2.2,8.1-8.9,8.1-8.9s-0.6-2.2-0.6-4.6c0-2.4,1.9-3,1.9-3l0.4-7.3l5.8-0.1l2.1-4.8l2,4.8h5.1l2.5-4.8l2.3,5h6.1l2.1-5l2.1,4.9
			l5.5,0.3l2.4-5.2l3,5.1h4.7v5.9c1.5,0,2.5,2.8,2.7,4.2c0.2,1.4-0.1,26.7-0.1,29.9c0,3.2,0.3,8.4-0.8,11.7
			c-1.1,3.4-4.2,4.2-4.2,4.2s1.6,23.7,1.6,25.1s-0.3,1.8-1.2,1.8c-0.9,0-3.8,0-4.7,0c-0.9,0-1.6,0.3-1.6-0.8s-1.3-29.2-1.3-29.2
			c2.7-0.2,5.1-4.1,5.1-7.3s0-16,0-16s-1.4,0.8-4.2,0.8c-2.8,0-4-1.6-4-1.6s-0.4,1.4-4,1.4c-3.6,0-3.7-1.4-4.5-1.3
			c-0.8,0.1-4.2,1.2-4.2,1.2s1.5,1.3,4.1,4.1c2.6,2.8,3.4,9.4,3.4,11.5c0,2-1.8,2.8-2.6,2.8s-2.3-0.6-2.4-2.2
			c-0.1-1.6,0.3-1.9-0.7-5.4c-1-3.5-5.3-8.4-5.3-8.4s-0.6,0.2-3,2.1s-3.5,2-4.6,0.5c-1.1-1.5,1.3-3.1,4.6-6.2c3.3-3.1,5-3.4,8.9-4.2
			c3.8-0.8,4.6-3.1,4.6-4.6s-2.3-4.9-3.4-4.8c-1.1,0.1-16.8,3.2-17.6,3.5c-0.8,0.3-9,8.5-9,9s-0.1,14.3,1.3,19.3
			c1.4,4.9,8.2,4.8,8.2,4.8l-2.4,31.3L124.3,153.8z M133.5,84.2l6.7-1c0,0-1-3.5-2.4-3.9c-1.4-0.4-3.9,0.3-4.3,1.3
			C133.1,81.6,133.5,84.2,133.5,84.2z M142.8,82.5h6.6c0,0-0.1-1.8-1.4-2.7c-1.3-0.8-3.2-0.6-3.9,0
			C142.8,80.9,142.8,82.5,142.8,82.5z M153.3,81.7c0,0,1.8-0.2,2.8,1.7c1,1.9,1.6,3.3,1.8,5.1s-0.3,4.4-0.4,5.1
			c-0.1,0.7-1,1.9-0.7,2.1s2-0.1,2.1-0.9s0.5-5.8,0.5-8.1s0.4-5.5-1.6-7c-1.2-1-3.5-0.6-4,0.3C153.3,80.9,153.3,81.7,153.3,81.7z
			 M162,89.9c0,3.6-0.4,5.1,1,5.9c1.4,0.8,4.3,0.9,4.9-0.9c0.6-1.7,0.6-1.7,0.6-4.7c0-3,0-6.7,0-7.5s-0.4-3.1-2.2-3
			c-1.7,0.1-3.5-0.4-4,1.9C161.7,84,162,86.9,162,89.9z"/>
	</g>
	<g>
		<polygon class="st1" points="148.5,78.1 151,76.4 153.6,78.3 152.3,75.5 153.5,72.7 150.9,74.5 148.4,72.7 149.7,75.4 		"/>
	</g>
</g>
</svg>
