<?xml version="1.0" encoding="utf-8"?>
<!-- Generator: Adobe Illustrator 25.1.0, SVG Export Plug-In . SVG Version: 6.00 Build 0)  -->
<svg version="1.1" id="Layer_1" xmlns="http://www.w3.org/2000/svg" xmlns:xlink="http://www.w3.org/1999/xlink" x="0px" y="0px"
	 viewBox="0 0 300 200" style="enable-background:new 0 0 300 200;" xml:space="preserve">
<style type="text/css">
	.st0{fill:#1F00B7;}
	.st1{fill:#FFFFFF;}
</style>
<g>
	<path class="st0" d="M113.5,127.2h35.3v35.3h-35.3V127.2z"/>
	<path class="st1" d="M139.3,139.8c0,2.1-0.7,3.9-1.9,5.1c-1.7,1.7-4.1,2.7-7.3,2.7c-1,0-1.7,0-2.4-0.2v9.3h-2.9v-23.4
		c1.5-0.2,3.4-0.5,5.8-0.5c2.9,0,5.1,0.7,6.6,1.9C138.6,136,139.3,137.7,139.3,139.8 M136.2,140.1c0-3.2-2.1-4.7-5.6-4.7
		c-1.3,0-2.4,0.2-2.9,0.2v9.3c0.7,0.2,1.5,0.2,2.4,0.2C133.9,144.9,136.2,143.3,136.2,140.1"/>
	<path class="st0" d="M151,127.2h35.3v35.3H151V127.2z"/>
	<path class="st1" d="M163,156.6v-10.2c0-3.9,0-6.8-0.2-9.7c1.3,2.4,2.7,5.3,4.4,7.8l7.6,11.9h3.2v-23.6h-3v10c0,3.6,0,6.6,0.2,9.7
		c-1-2.4-2.4-4.9-4.1-7.8l-7.6-11.9h-3.3v23.8H163z"/>
	<path class="st0" d="M113.5,164.7h35.3V200h-35.3V164.7z"/>
	<path class="st1" d="M122.5,170.5v13.8c0,7.3,3.6,10,8.5,10c5.1,0,9-2.9,9-10.2v-13.8h-3.2v14.1c0,5.1-2.1,7.6-5.8,7.6
		c-3.2,0-5.6-2.1-5.6-7.6v-14.1h-2.9C122.5,170.2,122.5,170.5,122.5,170.5z"/>
	<path class="st0" d="M151,164.7h35.3V200H151V164.7z"/>
	<path class="st1" d="M179.5,181.5c0,3.9-1.3,7-3.4,9.3c-2.1,2.1-5.8,3.4-10.4,3.4c-2.1,0-3.9,0-5.6-0.2v-23.4
		c1.9-0.2,4.1-0.5,6.6-0.5c4.4,0,7.6,1,9.5,2.9C178,174.9,179.5,177.8,179.5,181.5 M176.1,181.7c0-5.6-3.2-9-9.5-9
		c-1.5,0-2.7,0.2-3.6,0.2v18.7c0.7,0.2,1.9,0.2,3.2,0.2C172.7,191.7,176.1,188.1,176.1,181.7"/>
	<path class="st0" d="M113.5,52h73v73h-73C113.5,125,113.5,52,113.5,52z"/>
	<path class="st1" d="M168.5,104c-1.7,0.5-3.4,0.5-5.1,1.3c2.7-2.4,2.7-6.1,4.4-8.7c0.5-0.7,1-1.7,1.7-2.4c-1.3,2.1-0.7,5.1-1.9,7.3
		c-0.5,1-1.3,1.7-1.9,2.4c0.2,0,0.5-0.2,0.7-0.5c2.1-2.1,4.9-2.7,7-4.4c1-0.7,1.7-1.7,2.1-2.7C175.3,99.7,171.9,102.9,168.5,104
		 M176.1,90c-1,1.5-2.1,2.9-3.2,4.4c0-1.3,0.2-2.7-0.2-3.6c-0.7-2.4-1.5-4.9-1.7-7.6v-1c0.5,2.7,3.2,4.7,3.2,7.6
		c0,0.7-0.2,1.5-0.2,1.9v-0.2c0.5-1.5,0.5-2.9,1.3-4.4c1-1.9,1.9-3.9,1.5-6.3C178,83.6,177.5,87.2,176.1,90"/>
	<path class="st1" d="M174.6,74.9c1.7,2.4,2.1,6.1,0.7,8.7c-0.5,1.3-0.7,2.4-1,3.6c0-0.2,0-0.5-0.2-0.7c-0.7-2.7-3.2-4.4-4.1-7
		c-0.2-0.7-0.5-1.7-0.7-2.4c1,1.9,3.9,3.2,4.7,5.3c0.2,0.5,0.2,1.3,0.5,1.9c-0.2-2.1-0.2-4.7,0-7c0-1.3-0.2-2.4-0.7-3.4
		C174.1,73.8,174.1,74.4,174.6,74.9"/>
	<path class="st1" d="M173.4,74.4c0.5,1.9-0.2,4.1,0.2,6.1c-1.3-2.1-3.4-3.2-5.1-4.9c-1-1-1.5-2.1-1.7-3.6c1,2.1,3.4,2.7,4.9,4.7
		c0.5,0.5,0.7,1,1,1.5c-0.7-1.7-1-3.9-1.7-5.6c-0.2-1-0.7-1.7-1.5-2.1C171.2,70.4,173,72.7,173.4,74.4"/>
	<path class="st1" d="M168.3,69.8c1.5,1.3,2.1,2.9,2.4,4.7L171,75c-1.9-1.5-3.9-3.4-5.3-5.6l-1.7-1.7
		C165.6,68.3,167,68.5,168.3,69.8 M135.4,67.8c-1.5,1.3-2.4,2.9-3.4,4.4c-1,1.3-2.1,1.9-3.2,2.9c0.5-1.3,0.5-2.4,1.5-3.6
		C131.6,69.5,133.5,68.8,135.4,67.8"/>
	<path class="st1" d="M127.6,72.2c0.7-0.7,1.7-1.5,2.7-1.7c-1.9,1.3-1.7,3.6-2.4,5.6l-0.7,2.1c0.2-0.7,1-1.7,1.7-2.4
		c1.2-0.9,3.4-1.6,4.1-3.6c0,2.7-2.1,4.7-4.4,6.1c-1,0.7-1.7,1.7-2.1,2.7V79C126.2,76.6,126.2,73.8,127.6,72.2"/>
	<path class="st1" d="M123.7,80c0-2.1,1-4.1,2.1-5.8c-1.5,2.1-0.2,5.1-0.2,7.6v2.7c0-0.2,0-0.5,0.2-1c0.2-2.1,2.1-3.6,3.9-5.1
		c0.2-0.5,0.7-0.7,0.7-1.3c-0.2,1-0.5,2.1-1,3.2c-1.3,2.4-3.6,4.4-3.9,7.3C125.4,84.8,123.7,82.9,123.7,80"/>
	<path class="st1" d="M122.8,83.4c0-0.7,0.2-1.5,0.5-2.1c-0.5,2.9,1.5,5.1,2.1,7.8c0.2,1,0.2,2.1,0.7,2.9c-1-2.9,0.5-5.3,1.9-7.6
		c0.2-0.5,0.5-1.3,0.7-1.9c0.2,1.3-0.2,2.7-0.2,4.1c-0.2,1.7-1,3.2-1.3,4.9c-0.2,1-0.2,2.1,0,3.2h-0.2c-1.3-1.9-3.4-3.6-3.9-5.8
		C122.8,87,122.3,85.1,122.8,83.4"/>
	<path class="st1" d="M122.5,89.2c0.2,3.2,3.6,4.9,5.3,7.6c0.5,0.5,0.7,1.3,1.3,1.7c0-0.2-0.5-0.7-0.5-1c-0.5-1.3-0.7-2.4-0.7-3.9
		c0.2-1.7,0.7-3.2,0.5-4.9c1.5,3.2,1,6.8,1.7,10.2c0.2,0.7,0.7,1.5,1,1.9c-2.9-1.9-6.8-3.9-8.1-7.6
		C122.5,92.1,122.5,90.6,122.5,89.2"/>
	<path class="st1" d="M124.2,96.5c1.7,3.6,5.6,3.9,8.3,6.1c0.5,0.5,1,0.7,1.7,1c-0.7-0.5-1.5-1.3-1.7-1.9c-1.7-2.1-1-5.3-2.1-7.8
		c1,1.3,1.9,2.7,2.7,4.1c1,2.4,1.5,5.1,3.6,6.8c-2.4-0.7-5.3-0.5-7.6-2.1C126.9,101.8,124.7,99.5,124.2,96.5"/>
	<path class="st1" d="M128.4,103.6c2.7,2.9,6.8,1.9,10.2,2.7c0.5,0,1,0.2,1.5,0.2c-0.5-0.2-1-0.2-1.5-0.5c-2.7-1-3.2-3.9-4.7-5.8
		c1.9,1.3,3.4,2.9,5.1,4.7c1.3,1,2.7,1.7,4.4,1.9c-0.5,0.2-1,0-1.3,0.2c-2.9,0.7-6.1,1.9-9,0.7C131.6,107,129.6,105.3,128.4,103.6"
		/>
	<path class="st1" d="M163.6,110.4c-2.9,1-6.1,0-8.3-1.7c-1-0.5-1.7-1.5-2.9-1.5h-1.3c2.1,1,4.4,2.4,6.1,4.4c-0.2,0.2-0.7,0.7-1.3,1
		c-1.7-1.9-3.9-3.9-6.1-4.9c-0.5,0-1,0.2-1.3,0.5c-1.9,1.3-3.6,2.7-5.1,4.4l-1-1c1.9-1.9,3.9-3.4,6.1-4.4c-2.1-0.7-3.6,1.3-5.3,2.1
		c-1.9,1.5-4.9,1.9-7,1c-1.3-0.5-2.4-1.3-3.4-2.4c1.9,1.3,4.7,1.5,6.8,0.5c2.9-1.3,5.8-2.9,9.3-1.9c0.5,0,1,0.5,1.5,0
		c2.4-0.7,5.3-0.2,7.6,1l2.1,1c2.1,0.7,4.9,0.5,6.6-0.7C166.4,108.9,164.9,109.9,163.6,110.4"/>
	<path class="st1" d="M166.8,107.2c-3.2,1.3-6.6-0.2-9.7-0.7h-0.5c1.5-0.2,2.9-0.7,4.1-1.9c1.7-1.7,3.4-3.4,5.3-4.9
		c-1.5,1.9-1.7,4.7-3.9,5.6c-0.5,0.5-1.5,0.5-1.9,0.7c1,0,1.7-0.2,2.4-0.5c3.2-0.5,6.8,0,9.3-2.7C170.7,105,168.7,106.8,166.8,107.2
		 M172.7,98c-1.3,0.7-2.7,1.7-3.9,2.7c1.9-3.2,1-7.6,2.1-11l0.5-1.3c-0.2,2.1,0.7,3.9,0.7,6.1c0,1.3-0.5,2.4-1.3,3.6
		c1-1.3,1.7-2.4,2.7-3.6c1.7-1.7,3.4-3.4,3.6-5.6C178,92.6,175.8,96.1,172.7,98 M167.5,77c-3.2-6.8-10.2-11-17.5-11
		c-3.2,0-6.1,0.7-8.7,2.1c-4.9,2.1-8.7,7.3-10,12.1c-2.1,8.3,0.7,16.8,7.8,21.7c5.1,3.6,13.4,4.4,19,1.5c5.1-2.1,9.5-7.3,10.7-12.7
		C170.3,86.3,169.5,80.9,167.5,77 M168.5,84.1c0,0.2,0,0.7,0.2,1h-3.2c0-2.1-0.7-4.1-1.5-6.1c0-0.7-0.7-1.5-1.3-2.1
		c-0.5-0.5-0.7-1.3-1.5-1.5c-0.2-0.2-0.2-0.5-0.5-0.5h0.2c0.7-0.7,1.5-1.5,1.9-2.1C166.4,75.8,168,79.8,168.5,84.1 M160.4,94.6
		c-0.2-0.2-0.2-0.7-0.7-0.7c-0.2,0-0.2,0-0.2,0.2v0.2l-1-0.7c0.5-0.2,0.7-0.7,1-1.3c0.7-1.3,1.3-2.4,1.7-3.6h0.5
		c0.2,0,0.2-0.2,0-0.5l-0.2-0.2c0-0.5,0.2-1.3,0.2-1.7h2.9c-0.2,3.4-1.5,6.6-3.9,9.3C160.7,95,160.4,94.8,160.4,94.6 M158.3,97.2
		c-0.5-0.5,0.2-1,0.5-1.3c0-0.5-0.5-0.7-1-0.7c-0.2,0-0.2-0.2-0.2-0.5l0.5-0.5v0.2l1.3,1.3c0,0.2,0,0.5,0.2,0.7h0.5
		c-0.5,0.5-1.3,1-1.7,1.5l-0.2,0.2C158.1,97.7,158.5,97.5,158.3,97.2 M152.7,82.1c-0.2,0-0.2,0.2-0.5,0c-0.2-0.2-0.5-0.5-0.7-0.5
		c-0.2,0-0.2,0.2-0.5,0.2c0.2-0.5,1-0.5,1.3-1c0-0.2,0.2-0.5,0-0.7c0,0-0.2-0.2-0.5,0c-0.2,0.2-0.7,0.5-0.7,0.7l-0.7-0.2
		c0-0.7,0-1.5-0.2-1.9c0.5,0.2,0.7,0.2,1.3,0.2c1,0.2,1.9,0.7,2.7,1.3c-0.2,0-0.5,0.2-0.5,0.5c0,0.2,0.2,0.2,0.2,0.2h0.2
		C153.9,81.4,153,81.4,152.7,82.1 M153.6,90.2c0,0.2-0.5,0.2-0.7,0.5c-0.2,0,0-0.2,0-0.2C153.2,90.4,153.2,90.2,153.6,90.2
		 M159.3,80.9c0.2,0,0.5,0.5,0.7,0.5c0.2,0.5,0.5,1,0.5,1.5c-0.2,0.2-0.2,1-0.7,0.7c-0.2-0.2,0.2-0.5,0.2-0.7c0,0,0.2,0,0.2-0.2
		c0-0.2-0.5-0.2-0.5-0.5c0-0.2-0.2-0.2-0.5-0.2c-0.5-0.2-0.7,0.7-0.7,0c0,0,0.2-0.2,0-0.5c-0.2-0.2-0.2-0.7-0.7-0.7s-1-0.2-1.5,0
		c-0.2,0-0.7-0.2-1,0c0,0.2-0.2,0.5-0.2,0.7l-0.2-0.2c1-1,1.9-1.9,2.7-2.9c0.5,0.5,1,1.3,1.3,1.7C159.3,80.4,158.5,80.7,159.3,80.9
		 M161,86.1c-0.2,0.5-0.2,1.3-0.2,1.7V88c-0.2-0.2-0.2-0.7-0.7-1c-0.2-0.2,0-0.7-0.5-0.7l-0.5-0.2C159.6,86.3,160.3,86.1,161,86.1
		 M156.9,77.8l-1.7,1.7v-0.2c-1.3-1-2.7-1.5-4.4-1.7h-0.2v-2.9c1,0.2,2.1,0.2,3.2,0.7c1.3,0.5,2.4,1.3,3.4,1.9h0.2
		C157.3,77.2,156.9,77.8,156.9,77.8z M154.1,92.4c1,0,1.7,0.2,2.4,0.5c0.2,0,0.5,0,0.5-0.2c0-0.2,0.2-0.5,0.2-0.7
		c0.2-0.2,0-0.7,0.2-1c0-0.2,0-0.7-0.2-1c-0.2-0.2-0.5,0-0.7,0c-0.2,0.2-0.2,0.7-0.5,0.5c0,0.2-0.2,0.2-0.5,0c0.2-0.2,0.7,0,0.7-0.5
		c0.2-0.2,0.5,0,0.7-0.2c0.2-0.2,0.2-0.5,0.5-0.7v-0.2c0,0.2,0,0.2,0.2,0.5c0.2,0,0.2,0,0.5-0.2c0,0,0-0.2,0.2,0c0.2,0.2,0.5,0,1,0
		c0.2,0,0.5-0.2,0.7-0.2c-0.2,1-0.7,2.1-1.5,2.9c-0.2,0.2-0.5,0.7-0.7,1c0-0.2,0-0.5-0.2-0.7c-0.2,0.2-0.5,0.5-0.5,1
		c-0.2,0.5-0.7,0-1.3,0.2s-0.7-0.2-1-0.5C154.9,92.6,154.4,92.6,154.1,92.4C153.9,92.4,154.1,92.4,154.1,92.4 M152.2,67
		c3.9,0.5,7.3,2.1,10.2,4.9l-0.2,0.2c-0.5,0.5-1.3,1-1.5,1.7c0-0.2-0.2-0.2-0.5-0.5c0-0.5-0.5-1-1-1.3c-0.5,0-0.5-0.7-1-0.5
		c-0.5-0.2-1,0-1.3,0c-1.9-1-3.9-1.7-6.1-1.9h-0.2v-0.5l-0.2-0.2v-2.4C151,67,151.7,67,152.2,67 M151.5,71.2
		c1.7,0.2,3.2,0.7,4.7,1.5c0.2,0.2,0.7,0.5,0.7,1c0,0.2,1,0.2,0.5,1c0,0.2,0.2,0.2,0.2,0.5c0,0.3,0,0.5,0.2,0.5s0.5-0.5,0.7-0.2
		c0.5,0.2,0.5,1,0.5,1.5c0,0.2,0.2,0.5,0.7,0.7c0.5-0.2,0.2,0.5,0.7,0.7c0.5,0,0.7,0.7,1.3,0.5c0.5,0.2,0.7,0.7,1,1.3v0.2h0.5
		c0.7,1.5,1.3,3.2,1.3,5.1v0.2h-2.9c0-0.5,0-1.3-0.2-1.7c0.2-0.2,0.2-0.7,0.2-1s-0.2,0-0.2,0c-0.2,0.2-0.2,0.7-0.5,1
		c-0.2,0.5-0.2,1-0.2,1.5h-1.1c0.2-0.2-0.2-0.5,0-0.7h0.5c0.2-0.2,0.5-0.7,0.5-1c0.2-0.2,0.5-0.5,0.2-1c-0.3-0.4,0.5-1,0-1.7
		c0-0.2,0-0.2-0.2-0.2c-0.2,0-0.2,0-0.2-0.2c0-0.2,0.2-0.2,0.2-0.5c0-0.2-0.2,0-0.5,0c0-0.2,0.5-0.5,0-0.7c-0.2,0-0.5,0.2-0.7,0.2
		c0,0-0.2-0.2,0-0.5l-0.5-0.7h-0.4c0-0.5-0.7-1-0.7-1.5c-0.2-0.2,0-0.5-0.2-0.7c-0.2,0-0.2-0.2-0.5-0.2c-0.2-0.2-0.5-0.7-1-1h-0.2
		c0,0.2,0.5,0.5,0.2,0.7c0,0.2,0.2,0.5,0.5,0.7c-1.5-1.3-3.4-1.7-5.3-2.1c-0.5,0-0.7-0.2-1.3,0v-2.9C150.7,71.2,151.3,71,151.5,71.2
		 M150.1,82.4h-0.5v0.2c0.2,0.2,0.5,0.7,1,0.5c0.2,0,0.5,0,0.5,0.2c0.2,0,0.2,0.5,0.7,0.5c0,0.2,0,0.5,0.2,0.7
		c0,0.2-0.2,0.2-0.2,0.5v0.2c0.2,0,0.2,0.5,0.5,0.7c0,0.2,0,0.5,0.2,0.7c0,0.2-0.2,0.7-0.2,1c-0.5,0.2-1-0.2-1.3,0.5
		c-0.2,0.2,0,0.7-0.5,0.7c-0.7,0-1.5,0-2.1-0.5c0.5-0.2,1,0,1.3-0.5c0,0,0.2-0.2,0-0.5c0.2-0.2,0.2-0.5,0.2-0.7
		c-0.2-0.2,0-0.2,0-0.5c-0.5-0.2-1-0.2-1.5-0.2c-0.2,0.2,0,0.5-0.2,0.7c-0.5,0-0.5,0.5-0.7,0.7c-0.2,0-0.2-0.2-0.2-0.5v0.2
		c0.5,0,0.2-0.2,0.5-0.5c0-0.2,0.5-0.5,0.2-0.7v-0.2c-0.2,0-0.2,0-0.5,0.2c0,0.2,0,0.2-0.2,0.5c0,0,0-0.2-0.2-0.2
		c-0.2,0-0.5,0.2-0.7,0c-0.2,0-0.7,0.2-1,0.2c0-0.2,0.2-0.2,0.2-0.2c0-0.2,0.2-0.5,0.2-0.7h0.2c0,0,0.2,0.2,0.2,0v-0.2
		c0.2,0.2,0.2,1,0.7,0.7c0-0.2,0-0.7,0.2-1.3c-0.2-0.2,0.2-0.5,0.2-0.7c0.2,0,0.2-0.2,0.5-0.5c0.5-0.2,1-0.2,1.3-0.7
		c0-0.2,0-0.5-0.2-0.7C149.6,82.1,149.8,82.1,150.1,82.4 M149.6,100.4l-0.2-0.2c-3.6-0.2-6.8-1.7-9.5-4.1c0.5,0,0.5,0.5,1,0.5
		c0.5,0,1-0.5,1.5-0.5c0.2,0,0.7,0,0.7-0.2c0-0.2-0.2-0.5-0.2-0.7c1.9,1.5,3.9,2.1,6.3,2.4h0.2v2.7
		C149.3,100.2,149.6,100.4,149.6,100.4z M139.3,86.3c0.2,0,0.5,0,0.7-0.2c-0.5,0.2-0.2,0.7-0.5,1.3c0,0.2,0.2,0.2,0.2,0.5
		c-0.2,0-0.2,0.5-0.5,0.5C139.6,87.5,139.3,87,139.3,86.3 M136.5,89.7c-0.2,0-0.2,0.2-0.2,0.5c0-0.7-0.2-1.5-0.5-1.9l-0.2-1.9v-0.2
		c1,0.2,1.7,0,2.7,0h0.2c0,0.5,0,1,0.2,1.5c0,0-0.2-0.5-0.5-0.5c-0.5,0-0.5,0.7-1,0.7c-0.5,0.2-0.5,0.7-0.5,1.3
		C136.6,89.2,136.2,89.5,136.5,89.7 M138.4,85.1h-2.9c0.2-2.9,1-5.6,2.7-8.1l1-1.3v-0.2c0.7,0.7,1.3,1.5,1.9,1.9
		c-1.9,1.9-2.9,4.7-3.2,7.3C138.4,85.1,138.1,85.1,138.4,85.1 M149.3,73.8h-1.5c-2.1,0.5-4.1,1.5-5.8,2.9v-0.2
		c-0.7-0.5-1.3-1.5-1.9-1.7c0.7-0.5,1.3-1,1.7-1.3c2.1-1.5,4.9-2.4,7.6-2.4V73.8 M144.9,88.5C144.9,88.5,145.2,88.7,144.9,88.5
		c0.2,0,0-0.2,0.2-0.5c0.2,0.2,0,0.5,0.2,0.7v0.5c-0.2,0.2-0.7,0.5-0.7,1c-0.2-0.5-0.5-0.7-0.7-1.3c-0.2-0.5-0.5-1-0.7-1.7
		c0.2,0.2,1,0,1,0.5h0.5c0,0,0.2,0.2,0,0.2C144.7,88.2,144.7,88.5,144.9,88.5 M147.9,96.1l0.5,0.2c-1.7-0.5-3.4-1-4.9-2.1
		c-0.2-0.2-0.5-0.5-0.7-0.5c0.7-0.5,1.5-1.3,1.9-1.9c0.2,0.5,0.7,0.7,1.3,1c0.7,0.2,1.5,1,2.4,0.7c-0.2,0-0.5,0.2-0.7,0.5
		c0,0.2,0,0.7-0.5,0.7C147.1,95.3,147.6,95.8,147.9,96.1 M141.8,92.6v-0.5c-0.5-0.5-0.5-1.5-0.5-1.9c-0.5-0.2,0-0.7-0.2-1.3
		c0-0.5-1-0.7-0.5-1.5c0-0.2-0.2-0.2,0-0.5c0.2-0.2,0.5,0,0.7-0.2v-0.5c0.2,0,0.5,0.2,0.5-0.2c0.2-0.5-0.7-1,0-1.3
		c0.2,0,0.7,0,0.7,0.2c0,0.5,0.2,0.7,0,1.3c0.2,0,0,0.2,0,0.5c-0.2,0-0.2,0.2-0.5,0.2c0-0.2-0.2-0.2-0.5-0.2c-0.2,0.2,0,0.5,0,0.7
		V88h-0.2c-0.2,0,0,0.2,0,0.5c0.2,0,0.2,0.2,0.5,0.2c0-0.2,0.2-0.5,0.2-1l0.2,0.2c0.2,1.3,0.7,2.1,1.5,3.4l0.5,0.5
		c-1,0.7-1.7,1.7-2.4,2.4c0,0,0-0.2-0.2-0.2C141.3,92.9,141.8,93.1,141.8,92.6 M143,81.2l-0.7,0.7c-0.2,0.2-0.5,0.2-0.7,0.5
		c0,0,0.2,0.2,0,0.2c-0.2,0.2-0.7,0-0.7,0.2c0,0.2-0.5,0.5-0.5,1c-0.2,0.2-0.2,0.5-0.2,0.7c0.2,0.2,0,0.5,0.2,0.5H139
		c0.2-0.5,0.2-1,0.2-1.5c0.2-1.9,1.3-3.9,2.7-5.3c0.7,0.7,1.5,1.5,2.1,1.9C143.7,80.4,143.7,81.2,143,81.2 M149,91.6
		c-0.2,0.2,0,0.5,0,0.7c-1.3-0.2-2.4-0.7-3.4-1.7c0.5-0.7,1.5-1.3,1.7-1.9c0,0.2,0.5,0.5,0.7,0.5c0.5,0.2,1.3,0.5,1.7,0.2l-0.2,0.2
		c0.2,0.2-0.2,0.2,0,0.5c0,0.2-0.2,0-0.2,0.2s0,0.5,0.2,0.5v0.2C149.3,91.4,149,91.4,149,91.6 M145.9,88.7c0.2-0.2,0.2-0.5,0.5-0.7
		l0.2,0.2C146.4,88.2,146.2,88.5,145.9,88.7z M148.6,80.7v-0.5c-0.5,0.2-0.2,0.7-0.5,1c0,0.2-0.5,0.2-0.5,0.2c0-0.2-0.2-0.2-0.5,0
		c-0.2,0-0.2-0.5-0.5-0.2c0,0,0,0.2-0.2,0.2h-0.2c0-0.2,0.2-0.2,0.2-0.2c-0.2-0.2-0.5-0.2-0.7-0.5H145c1.3-1.3,2.7-1.7,4.1-1.9
		c0,0.7,0,1.5,0.2,2.1C149.3,80.4,148.8,80.9,148.6,80.7 M149.3,77.5c-0.5,0-1,0-1.5,0.2c-1,0.2-1.9,1-2.9,1.5c0,0,0,0.2-0.2,0.2
		c-0.7-0.5-1.3-1.5-2.1-1.9c1.9-1.5,4.1-2.7,6.6-2.7h0.2L149.3,77.5 M138.8,70.7c3.2-2.1,6.6-3.6,10.4-3.6V70c-3.9,0.2-7,1.7-10,4.1
		v0.2l-2.1-2.1C137.6,71.7,138.4,71.2,138.8,70.7 M131.6,83.4c0.5-4.1,2.1-7.6,4.9-10.7v0.2c0.7,0.7,1.3,1.5,1.9,1.9
		c-0.2,0.5-0.5,1-1,1.5c-1.7,2.4-2.7,5.3-2.9,8.3v0.5h-2.9L131.6,83.4 M133.9,94.8c-1.5-2.7-2.1-5.3-2.4-8.5h2.9V87
		c0,1,0.2,1.9,0.5,2.9l0.2,0.2c-0.2-0.2-0.2-0.5-0.5-0.5c-0.3,0-0.5,0-0.7,0.2c0,0.2-0.2,0.2-0.2,0.2s0-0.2-0.2-0.2
		c-0.2,0-0.5,0-0.5,0.2c0,0.2-0.2,0.2-0.2,0.2c0,0.5-0.2,1,0,1.5c0,0.2,0.2,0.7,0.5,0.7h0.2c0.2,0.2,0.5,0.7,0.7,0.5v-0.2
		c0.5,0,0.5,0.5,1,0.5l0.2,0.2c0.5,0,0.2,0.5,0.5,0.7c0.2,0.2,0.2,0.5,0.7,0.2v-0.2v0.6l0.7,0.7c0.2,0.2,0.5,0.7,1,1h-0.1l-1.9,1.9
		C135.7,97.2,134.5,96.1,133.9,94.8 M147.6,104c-3.9-0.5-7.3-2.1-10.4-4.9l1.9-1.9c2.7,2.7,6.1,4.1,10,4.4h0.2v2.9l0.2,0.2
		C148.8,104,148.1,104,147.6,104 M150.1,92.9h-0.5v-0.2c0.2,0,0.5-0.2,0.7-0.2c0.2-0.2,0.2-0.5,0.5-0.5c0-0.2,0.2,0,0.2-0.2
		c0,0,0.2-0.2,0.2,0c0.2,0.2,0.5,0.2,0.7,0.5c0,0,0.2,0,0-0.2c0.2,0,0.5,0.5,0.7,0v-0.2c0.2,0,0.2,0.2,0.7,0.2
		c0.2-0.2,0.5-0.5,0.7-0.5c0,0.5-0.5,1-1,1.3c-0.2,0-0.7,0-0.7,0.5c-0.2,0.2-0.7-0.2-1,0c-0.2,0,0-0.5-0.2-0.5
		C150.7,92.9,150.2,92.4,150.1,92.9 M150.7,98c0.2,0.2,1-0.2,1.3,0.2c0,0.2-0.2,0.5-0.2,0.7c0.2,0.2,0.2,0.7,0.7,1
		c0,0.2,0.2,0.2,0.5,0.2c-0.7,0.2-1.7,0-2.4,0.2C150.5,99.5,150.5,98.7,150.7,98l-0.2-0.2L150.7,98 M150.7,104c0-1,0-1.9-0.2-2.9
		c0.5,0.2,1,0,1.5,0l1.5-0.2c0.7,0.2,1.3,1.5,2.1,0.7c0.2-0.2,0.7-0.2,1-0.7c0.5-0.2,0.5-0.7,1-1c0.2-1,1.5-1,1.9-1.7
		c0.5-0.5,1-0.7,1.3-1.3v0.2l1.9,1.9C159.6,102.1,155.4,103.8,150.7,104 M168.5,86.3c-0.2,4.7-1.9,8.5-4.9,11.9v0.2l-2.1-2.1
		c0.5-0.2,0.7-0.7,1.3-1.3c1.9-2.4,2.9-5.3,3.2-8.7v-0.2h0.2L168.5,86.3z"/>
	<path class="st1" d="M158.5,71v0.2c0.5,0.2,0.7,0.7,1.3,0.7c0.2-0.2,0-0.2,0-0.5c0-0.3-0.2-0.2-0.5-0.2S158.8,70.7,158.5,71
		 M150.7,69.3c0.5,0.7,1.5,0.2,1.9,0.2c0.5,0.2,1,0,1.3-0.2c-0.2-0.5-1-0.5-1.5-0.5l-1.3,0.2C151.3,69,151,69,150.7,69.3"/>
</g>
</svg>
