<?xml version="1.0" encoding="utf-8"?>
<!-- Generator: Adobe Illustrator 25.1.0, SVG Export Plug-In . SVG Version: 6.00 Build 0)  -->
<svg version="1.1" id="Layer_1" xmlns="http://www.w3.org/2000/svg" xmlns:xlink="http://www.w3.org/1999/xlink" x="0px" y="0px"
	 viewBox="0 0 300 200" style="enable-background:new 0 0 300 200;" xml:space="preserve">
<style type="text/css">
	.st0{fill:#1F00B7;}
	.st1{fill:#FFFFFF;}
</style>
<g>
	<path class="st0" d="M100.7,101.7h47.7v47.7h-47.7V101.7z"/>
	<path class="st1" d="M135.6,118.7c0,2.9-1,5.3-2.6,6.9c-2.3,2.3-5.6,3.6-9.9,3.6c-1.3,0-2.3,0-3.3-0.3v12.5h-3.9v-31.6
		c2-0.3,4.6-0.7,7.9-0.7c3.9,0,6.9,1,8.9,2.6C134.6,113.5,135.6,115.8,135.6,118.7 M131.3,119.1c0-4.3-2.9-6.3-7.5-6.3
		c-1.7,0-3.3,0.3-3.9,0.3v12.5c1,0.3,2,0.3,3.3,0.3C128.3,125.6,131.3,123.4,131.3,119.1"/>
	<path class="st0" d="M151.3,101.7H199v47.7h-47.7V101.7z"/>
	<path class="st1" d="M167.5,141.4v-13.8c0-5.3,0-9.2-0.3-13.1c1.7,3.3,3.6,7.2,5.9,10.5l10.2,16.1h4.3v-31.9h-4v13.5
		c0,4.9,0,8.9,0.3,13.1c-1.3-3.3-3.3-6.6-5.6-10.5l-10.2-16.1h-4.5v32.2H167.5z"/>
	<path class="st0" d="M100.7,152.3h47.7V200h-47.7V152.3z"/>
	<path class="st1" d="M112.9,160.2v18.7c0,9.9,4.9,13.5,11.5,13.5c6.9,0,12.1-3.9,12.1-13.8v-18.7h-4.3v19.1
		c0,6.9-2.9,10.2-7.9,10.2c-4.3,0-7.5-2.9-7.5-10.2v-19.1h-3.9C112.9,159.8,112.9,160.2,112.9,160.2z"/>
	<path class="st0" d="M151.3,152.3H199V200h-47.7V152.3z"/>
	<path class="st1" d="M189.8,175c0,5.3-1.7,9.5-4.6,12.5c-2.9,2.9-7.9,4.6-14.1,4.6c-2.9,0-5.3,0-7.5-0.3v-31.6
		c2.6-0.3,5.6-0.7,8.9-0.7c5.9,0,10.2,1.3,12.8,3.9C187.8,166.1,189.8,170,189.8,175 M185.2,175.3c0-7.5-4.3-12.1-12.8-12.1
		c-2,0-3.6,0.3-4.9,0.3v25.3c1,0.3,2.6,0.3,4.3,0.3C180.6,188.8,185.2,183.9,185.2,175.3"/>
	<path class="st0" d="M100.7,0.1h98.6v98.6h-98.6V0.1z"/>
	<path class="st1" d="M175,70.4c-2.3,0.7-4.6,0.7-6.9,1.7c3.6-3.3,3.6-8.2,5.9-11.8c0.7-1,1.3-2.3,2.3-3.3c-1.7,2.9-1,6.9-2.6,9.9
		c-0.7,1.3-1.7,2.3-2.6,3.3c0.3,0,0.7-0.3,1-0.7c2.9-2.9,6.6-3.6,9.5-5.9c1.3-1,2.3-2.3,2.9-3.6C184.2,64.5,179.6,68.8,175,70.4
		 M185.2,51.4c-1.3,2-2.9,3.9-4.3,5.9c0-1.7,0.3-3.6-0.3-4.9c-1-3.3-2-6.6-2.3-10.2v-1.3c0.7,3.6,4.3,6.3,4.3,10.2
		c0,1-0.3,2-0.3,2.6v-0.3c0.7-2,0.7-3.9,1.7-5.9c1.3-2.6,2.6-5.3,2-8.5C187.8,42.8,187.2,47.7,185.2,51.4"/>
	<path class="st1" d="M183.2,31c2.3,3.3,2.9,8.2,1,11.8c-0.7,1.7-1,3.3-1.3,4.9c0-0.3,0-0.7-0.3-1c-1-3.6-4.3-5.9-5.6-9.5
		c-0.3-1-0.7-2.3-1-3.3c1.3,2.6,5.3,4.3,6.3,7.2c0.3,0.7,0.3,1.7,0.7,2.6c-0.3-2.9-0.3-6.3,0-9.5c0-1.7-0.3-3.3-1-4.6
		C182.6,29.6,182.6,30.3,183.2,31"/>
	<path class="st1" d="M181.6,30.3c0.7,2.6-0.3,5.6,0.3,8.2c-1.7-2.9-4.6-4.3-6.9-6.6c-1.3-1.3-2-2.9-2.3-4.9
		c1.3,2.9,4.6,3.6,6.6,6.3c0.7,0.7,1,1.3,1.3,2c-1-2.3-1.3-5.3-2.3-7.5c-0.3-1.3-1-2.3-2-2.9C178.6,25,181,28,181.6,30.3"/>
	<path class="st1" d="M174.7,24.1c2,1.7,2.9,3.9,3.3,6.3l0.3,0.7c-2.6-2-5.3-4.6-7.2-7.5l-2.3-2.3C171.1,22.1,173,22.4,174.7,24.1
		 M130.3,21.4c-2,1.7-3.3,3.9-4.6,5.9c-1.3,1.7-2.9,2.6-4.3,3.9c0.7-1.7,0.7-3.3,2-4.9C125.1,23.8,127.7,22.8,130.3,21.4"/>
	<path class="st1" d="M119.8,27.4c1-1,2.3-2,3.6-2.3c-2.6,1.7-2.3,4.9-3.3,7.5l-1,2.9c0.3-1,1.3-2.3,2.3-3.3C123,31,126,30,127,27.4
		c0,3.6-2.9,6.3-5.9,8.2c-1.3,1-2.3,2.3-2.9,3.6v-2.6C117.8,33.3,117.8,29.6,119.8,27.4"/>
	<path class="st1" d="M114.5,37.9c0-2.9,1.3-5.6,2.9-7.9c-2,2.9-0.3,6.9-0.3,10.2v3.6c0-0.3,0-0.7,0.3-1.3c0.3-2.9,2.9-4.9,5.3-6.9
		c0.3-0.7,1-1,1-1.7c-0.3,1.3-0.7,2.9-1.3,4.3c-1.7,3.3-4.9,5.9-5.3,9.9C116.8,44.4,114.5,41.8,114.5,37.9"/>
	<path class="st1" d="M113.2,42.5c0-1,0.3-2,0.7-2.9c-0.7,3.9,2,6.9,2.9,10.5c0.3,1.3,0.3,2.9,1,3.9c-1.3-3.9,0.7-7.2,2.6-10.2
		c0.3-0.7,0.7-1.7,1-2.6c0.3,1.7-0.3,3.6-0.3,5.6c-0.3,2.3-1.3,4.3-1.7,6.6c-0.3,1.3-0.3,2.9,0,4.3h-0.3c-1.7-2.6-4.6-4.9-5.3-7.9
		C113.2,47.4,112.6,44.8,113.2,42.5"/>
	<path class="st1" d="M112.9,50.4c0.3,4.3,4.9,6.6,7.2,10.2c0.7,0.7,1,1.7,1.7,2.3c0-0.3-0.7-1-0.7-1.3c-0.7-1.7-1-3.3-1-5.3
		c0.3-2.3,1-4.3,0.7-6.6c2,4.3,1.3,9.2,2.3,13.8c0.3,1,1,2,1.3,2.6c-3.9-2.6-9.2-5.3-10.9-10.2C112.9,54.3,112.9,52.3,112.9,50.4"/>
	<path class="st1" d="M115.2,60.2c2.3,4.9,7.5,5.3,11.2,8.2c0.7,0.7,1.3,1,2.3,1.3c-1-0.7-2-1.7-2.3-2.6c-2.3-2.9-1.3-7.2-2.9-10.5
		c1.3,1.7,2.6,3.6,3.6,5.6c1.3,3.3,2,6.9,4.9,9.2c-3.3-1-7.2-0.7-10.2-2.9C118.8,67.4,115.8,64.2,115.2,60.2"/>
	<path class="st1" d="M120.8,69.8c3.6,3.9,9.2,2.6,13.8,3.6c0.7,0,1.3,0.3,2,0.3c-0.7-0.3-1.3-0.3-2-0.7c-3.6-1.3-4.3-5.3-6.3-7.9
		c2.6,1.7,4.6,3.9,6.9,6.3c1.7,1.3,3.6,2.3,5.9,2.6c-0.7,0.3-1.3,0-1.7,0.3c-3.9,1-8.2,2.6-12.1,1C125.1,74.4,122.4,72.1,120.8,69.8
		"/>
	<path class="st1" d="M168.4,79c-3.9,1.3-8.2,0-11.2-2.3c-1.3-0.7-2.3-2-3.9-2h-1.7c2.9,1.3,5.9,3.3,8.2,5.9c-0.3,0.3-1,1-1.7,1.3
		c-2.3-2.6-5.3-5.3-8.2-6.6c-0.7,0-1.3,0.3-1.7,0.7c-2.6,1.7-4.9,3.6-6.9,5.9l-1.3-1.3c2.6-2.6,5.3-4.6,8.2-5.9
		c-2.9-1-4.9,1.7-7.2,2.9c-2.6,2-6.6,2.6-9.5,1.3c-1.7-0.7-3.3-1.7-4.6-3.3c2.6,1.7,6.3,2,9.2,0.7c3.9-1.7,7.9-3.9,12.5-2.6
		c0.7,0,1.3,0.7,2,0c3.3-1,7.2-0.3,10.2,1.3l2.9,1.3c2.9,1,6.6,0.7,8.9-1C172.1,77,170.1,78.3,168.4,79"/>
	<path class="st1" d="M172.7,74.7c-4.3,1.7-8.9-0.3-13.1-1h-0.7c2-0.3,3.9-1,5.6-2.6c2.3-2.3,4.6-4.6,7.2-6.6
		c-2,2.6-2.3,6.3-5.3,7.5c-0.7,0.7-2,0.7-2.6,1c1.3,0,2.3-0.3,3.3-0.7c4.3-0.7,9.2,0,12.5-3.6C178,71.7,175.3,74.1,172.7,74.7
		 M180.6,62.2c-1.7,1-3.6,2.3-5.3,3.6c2.6-4.3,1.3-10.2,2.9-14.8l0.7-1.7c-0.3,2.9,1,5.3,1,8.2c0,1.7-0.7,3.3-1.7,4.9
		c1.3-1.7,2.3-3.3,3.6-4.9c2.3-2.3,4.6-4.6,4.9-7.5C187.8,55,184.9,59.6,180.6,62.2 M173.7,33.9c-4.3-9.2-13.8-14.8-23.7-14.8
		c-4.3,0-8.2,1-11.8,2.9c-6.6,2.9-11.8,9.9-13.5,16.4c-2.9,11.2,1,22.7,10.5,29.3c6.9,4.9,18.1,5.9,25.6,2
		c6.9-2.9,12.8-9.9,14.5-17.1C177.4,46.4,176.3,39.2,173.7,33.9 M175,43.4c0,0.3,0,1,0.3,1.3h-4.3c0-2.9-1-5.6-2-8.2
		c0-1-1-2-1.7-2.9c-0.7-0.7-1-1.7-2-2c-0.3-0.3-0.3-0.7-0.7-0.7h0.3c1-1,2-2,2.6-2.9C172.1,32.3,174.3,37.6,175,43.4 M164.1,57.6
		c-0.3-0.3-0.3-1-1-1c-0.3,0-0.3,0-0.3,0.3v0.3l-1.3-1c0.7-0.3,1-1,1.3-1.7c1-1.7,1.7-3.3,2.3-4.9h0.7c0.3,0,0.3-0.3,0-0.7l-0.3-0.3
		c0-0.7,0.3-1.7,0.3-2.3h3.9c-0.3,4.6-2,8.9-5.3,12.5C164.5,58.2,164.1,57.9,164.1,57.6 M161.2,61.2c-0.7-0.7,0.3-1.3,0.7-1.7
		c0-0.7-0.7-1-1.3-1c-0.3,0-0.3-0.3-0.3-0.7l0.7-0.7v0.3l1.7,1.7c0,0.3,0,0.7,0.3,1h0.7c-0.7,0.7-1.7,1.3-2.3,2l-0.3,0.3
		C160.9,61.8,161.5,61.5,161.2,61.2 M153.7,40.8c-0.3,0-0.3,0.3-0.7,0c-0.3-0.3-0.7-0.7-1-0.7c-0.3,0-0.3,0.3-0.7,0.3
		c0.3-0.7,1.3-0.7,1.7-1.3c0-0.3,0.3-0.7,0-1c0,0-0.3-0.3-0.7,0c-0.3,0.3-1,0.7-1,1l-1-0.3c0-1,0-2-0.3-2.6c0.7,0.3,1,0.3,1.7,0.3
		c1.3,0.3,2.6,1,3.6,1.7c-0.3,0-0.7,0.3-0.7,0.7c0,0.3,0.3,0.3,0.3,0.3h0.3C155.3,39.8,154,39.8,153.7,40.8 M154.9,51.7
		c0,0.3-0.7,0.3-1,0.7c-0.3,0,0-0.3,0-0.3C154.3,52,154.3,51.7,154.9,51.7 M162.5,39.2c0.3,0,0.7,0.7,1,0.7c0.3,0.7,0.7,1.3,0.7,2
		c-0.3,0.3-0.3,1.3-1,1c-0.3-0.3,0.3-0.7,0.3-1c0,0,0.3,0,0.3-0.3c0-0.3-0.7-0.3-0.7-0.7c0-0.3-0.3-0.3-0.7-0.3c-0.7-0.3-1,1-1,0
		c0,0,0.3-0.3,0-0.7c-0.3-0.3-0.3-1-1-1s-1.3-0.3-2,0c-0.3,0-1-0.3-1.3,0c0,0.3-0.3,0.7-0.3,1l-0.3-0.3c1.3-1.3,2.6-2.6,3.6-3.9
		c0.7,0.7,1.3,1.7,1.7,2.3C162.5,38.5,161.5,38.8,162.5,39.2 M164.8,46.1c-0.3,0.7-0.3,1.7-0.3,2.3v0.3c-0.3-0.3-0.3-1-1-1.3
		c-0.3-0.3,0-1-0.7-1l-0.7-0.3C162.9,46.4,163.9,46.1,164.8,46.1 M159.3,34.9l-2.3,2.3v-0.3c-1.7-1.3-3.6-2-5.9-2.3h-0.3v-3.9
		c1.3,0.3,2.9,0.3,4.3,1c1.7,0.7,3.3,1.7,4.6,2.6h0.3C159.9,34.2,159.3,34.9,159.3,34.9z M155.6,54.6c1.3,0,2.3,0.3,3.3,0.7
		c0.3,0,0.7,0,0.7-0.3c0-0.3,0.3-0.7,0.3-1c0.3-0.3,0-1,0.3-1.3c0-0.3,0-1-0.3-1.3c-0.3-0.3-0.7,0-1,0c-0.3,0.3-0.3,1-0.7,0.7
		c0,0.3-0.3,0.3-0.7,0c0.3-0.3,1,0,1-0.7c0.3-0.3,0.7,0,1-0.3c0.3-0.3,0.3-0.7,0.7-1v-0.3c0,0.3,0,0.3,0.3,0.7c0.3,0,0.3,0,0.7-0.3
		c0,0,0-0.3,0.3,0c0.3,0.3,0.7,0,1.3,0c0.3,0,0.7-0.3,1-0.3c-0.3,1.3-1,2.9-2,3.9c-0.3,0.3-0.7,1-1,1.3c0-0.3,0-0.7-0.3-1
		c-0.3,0.3-0.7,0.7-0.7,1.3c-0.3,0.7-1,0-1.7,0.3c-0.7,0.3-1-0.3-1.3-0.7C156.6,55,155.9,55,155.6,54.6
		C155.3,54.6,155.6,54.6,155.6,54.6 M153,20.4c5.3,0.7,9.9,2.9,13.8,6.6l-0.3,0.3c-0.7,0.7-1.7,1.3-2,2.3c0-0.3-0.3-0.3-0.7-0.7
		c0-0.7-0.7-1.3-1.3-1.7c-0.7,0-0.7-1-1.3-0.7c-0.7-0.3-1.3,0-1.7,0c-2.6-1.3-5.3-2.3-8.2-2.6h-0.3v-0.7l-0.3-0.3v-3.3
		C151.3,20.4,152.3,20.4,153,20.4 M152,26c2.3,0.3,4.3,1,6.3,2c0.3,0.3,1,0.7,1,1.3c0,0.3,1.3,0.3,0.7,1.3c0,0.3,0.3,0.3,0.3,0.7
		s0,0.7,0.3,0.7c0.3,0,0.7-0.7,1-0.3c0.7,0.3,0.7,1.3,0.7,2c0,0.3,0.3,0.7,1,1c0.7-0.3,0.3,0.7,1,1c0.7,0,1,1,1.7,0.7
		c0.7,0.3,1,1,1.3,1.7v0.3h0.7c1,2,1.7,4.3,1.7,6.9v0.3h-3.9c0-0.7,0-1.7-0.3-2.3c0.3-0.3,0.3-1,0.3-1.3c0-0.3-0.3,0-0.3,0
		c-0.3,0.3-0.3,1-0.7,1.3c-0.3,0.7-0.3,1.3-0.3,2H163c0.3-0.3-0.3-0.7,0-1h0.7c0.3-0.3,0.7-1,0.7-1.3c0.3-0.3,0.7-0.7,0.3-1.3
		s0.7-1.3,0-2.3c0-0.3,0-0.3-0.3-0.3s-0.3,0-0.3-0.3c0-0.3,0.3-0.3,0.3-0.7c0-0.3-0.3,0-0.7,0c0-0.3,0.7-0.7,0-1
		c-0.3,0-0.7,0.3-1,0.3c0,0-0.3-0.3,0-0.7l-0.7-1h-0.5c0-0.7-1-1.3-1-2c-0.3-0.3,0-0.7-0.3-1c-0.3,0-0.3-0.3-0.7-0.3
		c-0.3-0.3-0.7-1-1.3-1.3h-0.3c0,0.3,0.7,0.7,0.3,1c0,0.3,0.3,0.7,0.7,1c-2-1.7-4.6-2.3-7.2-2.9c-0.7,0-1-0.3-1.7,0v-3.9
		C151,26,151.7,25.7,152,26 M150.1,41.2h-0.7v0.3c0.3,0.3,0.7,1,1.3,0.7c0.3,0,0.7,0,0.7,0.3c0.3,0,0.3,0.7,1,0.7c0,0.3,0,0.7,0.3,1
		c0,0.3-0.3,0.3-0.3,0.7v0.3c0.3,0,0.3,0.7,0.7,1c0,0.3,0,0.7,0.3,1c0,0.3-0.3,1-0.3,1.3c-0.7,0.3-1.3-0.3-1.7,0.7
		c-0.3,0.3,0,1-0.7,1c-1,0-2,0-2.9-0.7c0.7-0.3,1.3,0,1.7-0.7c0,0,0.3-0.3,0-0.7c0.3-0.3,0.3-0.7,0.3-1c-0.3-0.3,0-0.3,0-0.7
		c-0.7-0.3-1.3-0.3-2-0.3c-0.3,0.3,0,0.7-0.3,1c-0.7,0-0.7,0.7-1,1c-0.3,0-0.3-0.3-0.3-0.7v0.3c0.7,0,0.3-0.3,0.7-0.7
		c0-0.3,0.7-0.7,0.3-1v-0.3c-0.3,0-0.3,0-0.7,0.3c0,0.3,0,0.3-0.3,0.7c0,0,0-0.3-0.3-0.3s-0.7,0.3-1,0c-0.3,0-1,0.3-1.3,0.3
		c0-0.3,0.3-0.3,0.3-0.3c0-0.3,0.3-0.7,0.3-1h0.3c0,0,0.3,0.3,0.3,0v-0.3c0.3,0.3,0.3,1.3,1,1c0-0.3,0-1,0.3-1.7
		c-0.3-0.3,0.3-0.7,0.3-1c0.3,0,0.3-0.3,0.7-0.7c0.7-0.3,1.3-0.3,1.7-1c0-0.3,0-0.7-0.3-1C149.4,40.8,149.7,40.8,150.1,41.2
		 M149.4,65.5l-0.3-0.3c-4.9-0.3-9.2-2.3-12.8-5.6c0.7,0,0.7,0.7,1.3,0.7c0.7,0,1.3-0.7,2-0.7c0.3,0,1,0,1-0.3c0-0.3-0.3-0.7-0.3-1
		c2.6,2,5.3,2.9,8.5,3.3h0.3v3.6C149.1,65.2,149.4,65.5,149.4,65.5z M135.6,46.4c0.3,0,0.7,0,1-0.3c-0.7,0.3-0.3,1-0.7,1.7
		c0,0.3,0.3,0.3,0.3,0.7c-0.3,0-0.3,0.7-0.7,0.7C135.9,48,135.6,47.4,135.6,46.4 M131.7,51c-0.3,0-0.3,0.3-0.3,0.7
		c0-1-0.3-2-0.7-2.6l-0.3-2.6v-0.3c1.3,0.3,2.3,0,3.6,0h0.3c0,0.7,0,1.3,0.3,2c0,0-0.3-0.7-0.7-0.7c-0.7,0-0.7,1-1.3,1
		c-0.7,0.3-0.7,1-0.7,1.7C131.9,50.4,131.3,50.7,131.7,51 M134.3,44.8h-3.9c0.3-3.9,1.3-7.5,3.6-10.9l1.3-1.7v-0.3
		c1,1,1.7,2,2.6,2.6c-2.6,2.6-3.9,6.3-4.3,9.9C134.3,44.8,133.9,44.8,134.3,44.8 M149.1,29.6h-2c-2.9,0.7-5.6,2-7.9,3.9v-0.3
		c-1-0.7-1.7-2-2.6-2.3c1-0.7,1.7-1.3,2.3-1.7c2.9-2,6.6-3.3,10.2-3.3V29.6 M143.1,49.4C143.1,49.4,143.5,49.7,143.1,49.4
		c0.3,0,0-0.3,0.3-0.7c0.3,0.3,0,0.7,0.3,1v0.7c-0.3,0.3-1,0.7-1,1.3c-0.3-0.7-0.7-1-1-1.7s-0.7-1.3-1-2.3c0.3,0.3,1.3,0,1.3,0.7
		h0.7c0,0,0.3,0.3,0,0.3C142.8,49,142.8,49.4,143.1,49.4 M147.1,59.6l0.7,0.3c-2.3-0.7-4.6-1.3-6.6-2.9c-0.3-0.3-0.7-0.7-1-0.7
		c1-0.7,2-1.7,2.6-2.6c0.3,0.7,1,1,1.7,1.3c1,0.3,2,1.3,3.3,1c-0.3,0-0.7,0.3-1,0.7c0,0.3,0,1-0.7,1
		C146.1,58.6,146.7,59.2,147.1,59.6 M138.9,55v-0.7c-0.7-0.7-0.7-2-0.7-2.6c-0.7-0.3,0-1-0.3-1.7c0-0.7-1.3-1-0.7-2
		c0-0.3-0.3-0.3,0-0.7c0.3-0.3,0.7,0,1-0.3v-0.7c0.3,0,0.7,0.3,0.7-0.3c0.3-0.7-1-1.3,0-1.7c0.3,0,1,0,1,0.3c0,0.7,0.3,1,0,1.7
		c0.3,0,0,0.3,0,0.7c-0.3,0-0.3,0.3-0.7,0.3c0-0.3-0.3-0.3-0.7-0.3c-0.3,0.3,0,0.7,0,1v0.7h-0.3c-0.3,0,0,0.3,0,0.7
		c0.3,0,0.3,0.3,0.7,0.3c0-0.3,0.3-0.7,0.3-1.3l0.3,0.3c0.3,1.7,1,2.9,2,4.6l0.7,0.7c-1.3,1-2.3,2.3-3.3,3.3c0,0,0-0.3-0.3-0.3
		C138.2,55.3,138.9,55.6,138.9,55 M140.5,39.5l-1,1c-0.3,0.3-0.7,0.3-1,0.7c0,0,0.3,0.3,0,0.3c-0.3,0.3-1,0-1,0.3
		c0,0.3-0.7,0.7-0.7,1.3c-0.3,0.3-0.3,0.7-0.3,1c0.3,0.3,0,0.7,0.3,0.7h-1.7c0.3-0.7,0.3-1.3,0.3-2c0.3-2.6,1.7-5.3,3.6-7.2
		c1,1,2,2,2.9,2.6C141.5,38.5,141.5,39.5,140.5,39.5 M148.7,53.6c-0.3,0.3,0,0.7,0,1c-1.7-0.3-3.3-1-4.6-2.3c0.7-1,2-1.7,2.3-2.6
		c0,0.3,0.7,0.7,1,0.7c0.7,0.3,1.7,0.7,2.3,0.3l-0.3,0.3c0.3,0.3-0.3,0.3,0,0.7c0,0.3-0.3,0-0.3,0.3c0,0.3,0,0.7,0.3,0.7V53
		C149.1,53.3,148.7,53.3,148.7,53.6 M144.5,49.7c0.3-0.3,0.3-0.7,0.7-1l0.3,0.3C145.1,49,144.8,49.4,144.5,49.7z M148.1,38.8v-0.7
		c-0.7,0.3-0.3,1-0.7,1.3c0,0.3-0.7,0.3-0.7,0.3c0-0.3-0.3-0.3-0.7,0c-0.3,0-0.3-0.7-0.7-0.3c0,0,0,0.3-0.3,0.3h-0.3
		c0-0.3,0.3-0.3,0.3-0.3c-0.3-0.3-0.7-0.3-1-0.7h-0.7c1.7-1.7,3.6-2.3,5.6-2.6c0,1,0,2,0.3,2.9C149.1,38.5,148.4,39.2,148.1,38.8
		 M149.1,34.6c-0.7,0-1.3,0-2,0.3c-1.3,0.3-2.6,1.3-3.9,2c0,0,0,0.3-0.3,0.3c-1-0.7-1.7-2-2.9-2.6c2.6-2,5.6-3.6,8.9-3.6h0.3
		L149.1,34.6 M134.9,25.4c4.3-2.9,8.9-4.9,14.1-4.9v3.9c-5.3,0.3-9.5,2.3-13.5,5.6v0.3l-2.9-2.9C133.3,26.7,134.3,26,134.9,25.4
		 M125.1,42.5c0.7-5.6,2.9-10.2,6.6-14.5v0.3c1,1,1.7,2,2.6,2.6c-0.3,0.7-0.7,1.3-1.3,2c-2.3,3.3-3.6,7.2-3.9,11.2v0.7h-3.9V42.5
		 M128.3,57.9c-2-3.6-2.9-7.2-3.3-11.5h3.9v1c0,1.3,0.3,2.6,0.7,3.9l0.3,0.3c-0.3-0.3-0.3-0.7-0.7-0.7s-0.7,0-1,0.3
		c0,0.3-0.3,0.3-0.3,0.3s0-0.3-0.3-0.3c-0.3,0-0.7,0-0.7,0.3c0,0.3-0.3,0.3-0.3,0.3c0,0.7-0.3,1.3,0,2c0,0.3,0.3,1,0.7,1h0.3
		c0.3,0.3,0.7,1,1,0.7v-0.3c0.7,0,0.7,0.7,1.3,0.7l0.3,0.3c0.7,0,0.3,0.7,0.7,1c0.3,0.3,0.3,0.7,1,0.3v-0.3V58l1,1
		c0.3,0.3,0.7,1,1.3,1.3H134l-2.6,2.6C130.7,61.2,129,59.6,128.3,57.9 M146.7,70.4c-5.3-0.7-9.9-2.9-14.1-6.6l2.6-2.6
		c3.6,3.6,8.2,5.6,13.5,5.9h0.3v3.9l0.3,0.3C148.4,70.4,147.4,70.4,146.7,70.4 M150.1,55.3h-0.7V55c0.3,0,0.7-0.3,1-0.3
		c0.3-0.3,0.3-0.7,0.7-0.7c0-0.3,0.3,0,0.3-0.3c0,0,0.3-0.3,0.3,0c0.3,0.3,0.7,0.3,1,0.7c0,0,0.3,0,0-0.3c0.3,0,0.7,0.7,1,0v-0.3
		c0.3,0,0.3,0.3,1,0.3c0.3-0.3,0.7-0.7,1-0.7c0,0.7-0.7,1.3-1.3,1.7c-0.3,0-1,0-1,0.7c-0.3,0.3-1-0.3-1.3,0c-0.3,0,0-0.7-0.3-0.7
		C151,55.3,150.3,54.6,150.1,55.3 M151,62.2c0.3,0.3,1.3-0.3,1.7,0.3c0,0.3-0.3,0.7-0.3,1c0.3,0.3,0.3,1,1,1.3
		c0,0.3,0.3,0.3,0.7,0.3c-1,0.3-2.3,0-3.3,0.3C150.7,64.2,150.7,63.2,151,62.2l-0.3-0.3L151,62.2 M151,70.4c0-1.3,0-2.6-0.3-3.9
		c0.7,0.3,1.3,0,2,0l2-0.3c1,0.3,1.7,2,2.9,1c0.3-0.3,1-0.3,1.3-1c0.7-0.3,0.7-1,1.3-1.3c0.3-1.3,2-1.3,2.6-2.3
		c0.7-0.7,1.3-1,1.7-1.7v0.3l2.6,2.6C162.9,67.8,157.3,70.1,151,70.4 M175,46.4c-0.3,6.3-2.6,11.5-6.6,16.1v0.3l-2.9-2.9
		c0.7-0.3,1-1,1.7-1.7c2.6-3.3,3.9-7.2,4.3-11.8v-0.3h0.3L175,46.4z"/>
	<path class="st1" d="M161.5,25.7V26c0.7,0.3,1,1,1.7,1c0.3-0.3,0-0.3,0-0.7s-0.3-0.3-0.7-0.3S161.9,25.4,161.5,25.7 M151,23.4
		c0.7,1,2,0.3,2.6,0.3c0.7,0.3,1.3,0,1.7-0.3c-0.3-0.7-1.3-0.7-2-0.7l-1.7,0.3C151.7,23.1,151.3,23.1,151,23.4"/>
</g>
</svg>
