<?xml version="1.0" encoding="utf-8"?>
<!-- Generator: Adobe Illustrator 25.1.0, SVG Export Plug-In . SVG Version: 6.00 Build 0)  -->
<svg version="1.1" id="Layer_1" xmlns="http://www.w3.org/2000/svg" xmlns:xlink="http://www.w3.org/1999/xlink" x="0px" y="0px"
	 viewBox="0 0 300 200" style="enable-background:new 0 0 300 200;" xml:space="preserve">
<style type="text/css">
	.st0{fill:#1F00B7;}
</style>
<path id="Path_1" class="st0" d="M64.7,136.1h-1.9v-20.4h7.4c0.7,0,1.4,0.1,2.1,0.4c0.7,0.3,1.3,0.7,1.8,1.3
	c0.5,0.5,0.9,1.1,1.2,1.8c0.3,0.7,0.4,1.4,0.4,2.1c0,0.7-0.1,1.5-0.4,2.2c-0.3,0.7-0.7,1.3-1.2,1.8c-0.6,0.5-1.2,0.9-1.9,1.2
	c-0.6,0.3-1.3,0.4-2.1,0.4h-5.5V136.1z M64.7,125h5.5c0.5,0,1-0.1,1.4-0.3c0.5-0.2,0.9-0.5,1.2-0.9c0.4-0.4,0.7-0.8,0.9-1.2
	c0.2-0.4,0.3-0.9,0.3-1.4c0-0.5-0.1-1-0.3-1.4c-0.2-0.5-0.5-0.9-0.9-1.3c-0.4-0.4-0.8-0.7-1.2-0.9c-0.4-0.2-0.9-0.3-1.4-0.3h-5.5
	V125z M91.3,136.1H89l-4.8-9.3h-4.9v9.3h-1.9v-20.4h7.4c0.7,0,1.5,0.1,2.1,0.4c0.7,0.3,1.3,0.7,1.8,1.3c0.5,0.5,0.9,1.1,1.2,1.8
	c0.3,0.7,0.4,1.4,0.4,2.1c0,0.6-0.1,1.2-0.3,1.8c-0.2,0.6-0.5,1.1-0.9,1.6c-0.4,0.5-0.8,0.9-1.3,1.2c-0.5,0.3-1.1,0.6-1.6,0.7
	L91.3,136.1z M84.9,125c0.5,0,1-0.1,1.5-0.3c0.5-0.2,0.9-0.5,1.2-0.9c0.4-0.4,0.7-0.8,0.9-1.2c0.2-0.4,0.3-0.9,0.3-1.4
	c0-0.5-0.1-1-0.3-1.4c-0.2-0.5-0.5-0.9-0.9-1.3c-0.4-0.4-0.8-0.7-1.2-0.9c-0.5-0.2-1-0.3-1.5-0.3h-5.4v7.6L84.9,125L84.9,125z
	 M102.9,115.7v1.9h-8.5v7.4h6.7v1.9h-6.7v7.5h8.5v2H92.5v-20.6H102.9z M109.8,136.4c-0.7,0-1.3-0.1-1.9-0.2
	c-0.6-0.2-1.2-0.4-1.8-0.7c-0.6-0.3-1.2-0.8-1.6-1.3c-0.4-0.5-0.8-1.1-0.9-1.7l1.8-0.7c0.1,0.4,0.4,0.8,0.7,1.1
	c0.3,0.4,0.8,0.7,1.2,0.9c0.4,0.2,0.8,0.4,1.2,0.5c0.4,0.1,0.9,0.2,1.4,0.3c0.7,0,1.4-0.1,2-0.2c0.6-0.2,1.2-0.5,1.7-0.9
	c0.4-0.3,0.7-0.7,1-1.2c0.2-0.4,0.4-0.9,0.4-1.4c0-0.9-0.4-1.9-1.1-2.4c-1.1-0.8-2.4-1.4-3.8-1.7c-1.1-0.3-2.1-0.7-3.1-1.2
	c-0.8-0.4-1.5-0.9-2.1-1.6c-0.7-0.8-1.2-1.9-1.1-3c0.1-0.9,0.3-1.8,0.7-2.6c0.4-0.8,1-1.4,1.8-1.8c0.7-0.4,1.4-0.7,2.1-0.8
	c0.8-0.2,1.6-0.2,2.5-0.2c1,0,2,0.2,2.9,0.6c0.8,0.3,1.6,0.9,2.2,1.5l-1.4,1.3c-0.4-0.5-1-0.9-1.6-1.2c-0.7-0.3-1.4-0.4-2.2-0.5
	c-0.6,0-1.3,0-1.9,0.2c-0.6,0.1-1.1,0.3-1.5,0.7c-0.5,0.3-0.9,0.7-1.1,1.1c-0.3,0.5-0.4,1.1-0.4,1.6c0,0.9,0.4,1.8,1.1,2.3
	c1.2,0.8,2.5,1.4,3.9,1.7c1.1,0.3,2.1,0.7,3.1,1.2c0.8,0.4,1.5,0.9,2.1,1.6c0.4,0.5,0.7,1,0.9,1.6c0.2,0.5,0.3,1.1,0.3,1.6
	c-0.1,1.5-0.8,3-2.1,3.9c-0.6,0.5-1.3,0.9-2.1,1.1c-0.8,0.3-1.6,0.4-2.5,0.4c-0.2-0.1-0.4-0.1-0.5-0.1
	C110,136.4,109.9,136.4,109.8,136.4L109.8,136.4z M117.8,115.5h2v20.6h-2V115.5z M121.6,136.1v-20.4h5.1c1.3,0,2.7,0.2,3.9,0.7
	c1.3,0.5,2.4,1.3,3.3,2.3c1,0.9,1.8,2.1,2.3,3.3c0.5,1.2,0.7,2.6,0.7,3.9c0,1.3-0.2,2.7-0.7,3.9c-0.5,1.2-1.3,2.4-2.3,3.3
	c-0.9,1-2.1,1.8-3.3,2.3c-1.2,0.5-2.6,0.8-3.9,0.8h-5.1L121.6,136.1z M123.5,134.3h3.2c1.1,0,2.2-0.2,3.2-0.6c1-0.4,2-1,2.8-1.8
	c0.8-0.8,1.4-1.7,1.8-2.7c0.4-1,0.6-2.2,0.6-3.3c0-1.1-0.2-2.2-0.6-3.2c-0.4-1-1-2-1.8-2.8c-0.8-0.8-1.7-1.4-2.7-1.8
	c-1-0.4-2.2-0.6-3.3-0.6h-3.2L123.5,134.3z M149.1,115.7v1.9h-8.5v7.4h6.7v1.9h-6.7v7.5h8.5v2h-10.4v-20.6H149.1z M165,115.7v20.4
	h-2.1l-10.2-17v17h-1.9v-20.4h2.1l10.2,17v-17H165z M177,134.5c0.8,0,1.6-0.1,2.4-0.4c0.8-0.2,1.6-0.6,2.3-1v2.1
	c-0.7,0.4-1.5,0.7-2.3,0.9c-0.8,0.2-1.6,0.3-2.4,0.3c-1.4,0-2.7-0.2-4-0.7c-1.3-0.5-2.4-1.3-3.4-2.3c-0.9-1-1.7-2.1-2.3-3.4
	c-0.5-1.3-0.8-2.6-0.8-4c0-1.4,0.2-2.7,0.8-4c0.5-1.2,1.3-2.4,2.3-3.4c1-0.9,2.1-1.7,3.4-2.3c1.3-0.5,2.6-0.8,4-0.8
	c0.8,0,1.6,0.1,2.4,0.3c0.8,0.2,1.5,0.5,2.3,0.9v2.1c-1.4-0.9-3-1.4-4.7-1.4c-1.1,0-2.2,0.2-3.3,0.7c-1,0.5-2,1.1-2.8,1.9
	c-0.8,0.8-1.5,1.8-1.9,2.8c-0.4,1.1-0.6,2.2-0.6,3.3c0,1.1,0.2,2.2,0.7,3.3c0.5,1,1.1,2,1.9,2.8c0.7,0.8,1.7,1.4,2.8,1.8
	C174.8,134.3,175.9,134.5,177,134.5z M182.5,115.5h1.9v20.6h-1.9V115.5z M200.7,115.7v20.4h-1.9V131h-8.1l-3.2,5.1h-2.3l13-20.4
	H200.7L200.7,115.7z M191.9,129.2h7.1v-10.9L191.9,129.2z M209.7,136.1v-20.4h5.1c1.3,0,2.7,0.2,3.9,0.7c1.2,0.5,2.4,1.3,3.3,2.3
	c1,0.9,1.8,2.1,2.3,3.3c0.5,1.2,0.8,2.6,0.8,3.9c0,1.4-0.3,2.7-0.8,3.9c-0.5,1.2-1.3,2.4-2.3,3.3c-0.9,1-2,1.8-3.3,2.3
	c-1.2,0.5-2.6,0.8-3.9,0.8h-5.1L209.7,136.1z M211.6,134.3h3.2c1.1,0,2.2-0.2,3.2-0.6c1-0.4,2-1,2.8-1.8c0.8-0.8,1.4-1.7,1.8-2.7
	c0.4-1,0.6-2.2,0.6-3.3c0-1.1-0.2-2.2-0.6-3.2c-0.4-1-1-2-1.8-2.8c-0.8-0.8-1.7-1.4-2.7-1.8c-1-0.4-2.2-0.6-3.3-0.6h-3.2
	L211.6,134.3z M237.2,115.7v1.9h-8.5v7.4h6.7v1.9h-6.7v7.5h8.5v2h-10.4v-20.6H237.2z M66.3,147.6v17.2h7.4v3H63.1v-20.3H66.3z
	 M91.8,147.6v20.4h-3.2v-4.8h-7l-3,4.8h-3.7l13-20.4H91.8L91.8,147.6z M83.6,160h4.9v-7.7L83.6,160z M117,167.9h-3.6l-4.4-8.5h-3.5
	v8.6h-3.1v-20.4h7.6c0.8,0,1.5,0.1,2.3,0.5c0.7,0.3,1.4,0.7,1.9,1.3c0.5,0.6,1,1.2,1.3,1.9c0.6,1.3,0.6,2.7,0.2,4
	c-0.2,0.6-0.5,1.1-0.8,1.6c-0.3,0.5-0.7,0.9-1.1,1.2c-0.4,0.4-0.9,0.7-1.4,0.9L117,167.9z M109.8,156.2c0.4,0,0.7-0.1,1.1-0.2
	c0.4-0.2,0.7-0.4,1-0.7c0.2-0.3,0.4-0.6,0.5-0.9c0.1-0.3,0.2-0.7,0.2-1c0-0.4-0.1-0.7-0.2-1.1c-0.1-0.3-0.3-0.7-0.5-1
	c-0.3-0.3-0.6-0.5-0.9-0.7c-0.3-0.2-0.7-0.2-1.1-0.2h-4.4v5.6L109.8,156.2z M129,147.6v3h-7.4v5.6h5.6v3h-5.6v5.6h7.4v3h-10.4v-20.3
	H129z M134.7,167.9h-3v-20.3h7.6c0.8,0,1.5,0.1,2.3,0.5c0.7,0.3,1.4,0.7,1.9,1.3c0.5,0.6,1,1.2,1.3,1.9c0.3,0.7,0.5,1.5,0.5,2.3
	c0,1.6-0.6,3.1-1.7,4.2c-0.6,0.6-1.2,1-1.9,1.4c-0.7,0.3-1.5,0.5-2.3,0.5h-4.5L134.7,167.9z M134.7,156.2h4.5c0.4,0,0.7-0.1,1.1-0.2
	c0.4-0.2,0.7-0.4,0.9-0.7c0.3-0.2,0.5-0.5,0.6-0.9c0.1-0.3,0.2-0.7,0.2-1c0-0.4-0.1-0.7-0.2-1.1c-0.2-0.4-0.4-0.7-0.6-1
	c-0.2-0.3-0.5-0.5-0.9-0.7c-0.3-0.2-0.7-0.2-1.1-0.2h-4.5V156.2z M149.9,166c-0.7-0.7-1.2-1.5-1.6-2.3c-0.4-0.9-0.6-1.8-0.6-2.8
	v-13.3h3.1v13.3c0,0.6,0.1,1.1,0.3,1.6c0.2,0.5,0.5,1,0.9,1.3c0.4,0.4,0.8,0.7,1.3,0.9c0.5,0.2,1.1,0.3,1.6,0.3
	c0.5,0,1.1-0.1,1.6-0.3c0.5-0.2,1-0.5,1.3-0.9c0.4-0.4,0.7-0.8,0.9-1.3c0.3-0.5,0.4-1.1,0.4-1.6v-13.3h3v13.3c0,1-0.2,1.9-0.6,2.8
	c-0.4,0.8-0.9,1.6-1.6,2.3c-1.3,1.4-3.2,2.1-5.1,2.1c-1,0-1.9-0.2-2.8-0.5C151.3,167.2,150.5,166.7,149.9,166z M156.6,143.3l-1.4,3
	h-1.9v-3H156.6z M165.7,167.9v-20.3h6.4c0.8,0,1.5,0.1,2.3,0.4c0.7,0.3,1.4,0.7,1.9,1.3c0.5,0.5,1,1.2,1.2,1.9
	c0.3,0.7,0.4,1.5,0.4,2.3c0,0.7-0.1,1.4-0.4,2c-0.3,0.6-0.6,1.2-1,1.8c0.4,0.3,0.7,0.6,1.1,0.9c0.3,0.3,0.6,0.7,0.8,1.1
	c0.3,0.4,0.5,0.9,0.6,1.4c0.1,0.5,0.2,1,0.2,1.4c0,0.8-0.2,1.6-0.5,2.3c-0.3,0.7-0.8,1.3-1.3,1.9c-0.6,0.6-1.2,1-1.9,1.4
	c-0.7,0.3-1.5,0.5-2.3,0.5L165.7,167.9z M168.9,156.1h3.3c0.4,0,0.7-0.1,1.1-0.2c0.3-0.1,0.7-0.3,0.9-0.6c0.2-0.3,0.4-0.6,0.5-0.9
	c0.1-0.3,0.2-0.7,0.2-1c0-0.4-0.1-0.7-0.2-1.1c-0.1-0.3-0.3-0.6-0.5-0.8c-0.3-0.3-0.6-0.5-0.9-0.6c-0.3-0.1-0.7-0.2-1.1-0.2h-3.3
	V156.1z M168.9,164.9h4.4c0.4,0,0.7-0.1,1.1-0.2c0.4-0.2,0.7-0.4,1-0.7c0.3-0.2,0.5-0.5,0.6-0.9c0.1-0.4,0.2-0.7,0.2-1.1
	c0-0.4-0.1-0.7-0.2-1.1c-0.1-0.4-0.3-0.7-0.6-1c-0.3-0.3-0.6-0.5-0.9-0.7c-0.3-0.2-0.7-0.2-1.1-0.2h-4.4L168.9,164.9z M184.8,147.6
	v17.2h7.3v3h-10.4v-20.3H184.8L184.8,147.6z M197.8,167.9h-3.1v-20.3h3.1L197.8,167.9z M210.6,165c0.6,0,1.2-0.1,1.8-0.2
	c0.6-0.1,1.1-0.4,1.6-0.7v3.4c-0.6,0.2-1.2,0.3-1.7,0.4c-0.6,0.1-1.1,0.2-1.7,0.2c-1.4,0-2.7-0.2-4-0.7c-1.3-0.5-2.4-1.3-3.4-2.3
	c-2-1.9-3.1-4.6-3-7.4c0-1.4,0.3-2.7,0.8-4c0.5-1.2,1.3-2.4,2.3-3.3c1-1,2.1-1.8,3.4-2.3c1.3-0.5,2.6-0.8,4-0.8
	c0.6,0,1.2,0.1,1.7,0.2c0.5,0.1,1.1,0.3,1.7,0.5v3.4c-0.5-0.3-1.1-0.6-1.6-0.7c-0.6-0.1-1.2-0.2-1.8-0.2c-1,0-1.9,0.2-2.8,0.6
	c-0.9,0.4-1.7,0.9-2.4,1.6c-0.7,0.7-1.2,1.5-1.6,2.4c-0.4,0.9-0.6,1.9-0.6,2.9c0,1,0.2,1.9,0.6,2.8c0.4,0.9,1,1.7,1.6,2.3
	c0.6,0.7,1.4,1.3,2.3,1.6C208.7,164.9,209.6,165,210.6,165L210.6,165z M232.4,147.6v20.4h-3v-4.8h-7l-3.1,4.8h-3.7l13-20.4H232.4
	L232.4,147.6z M224.2,160h4.9v-7.7L224.2,160z M63.1,199.8v-20.4h5.3c1.3,0,2.7,0.2,3.9,0.7c1.3,0.5,2.4,1.3,3.4,2.3
	c1,0.9,1.7,2.1,2.2,3.3c0.5,1.2,0.7,2.6,0.7,3.9c0,1.3-0.2,2.7-0.7,3.9c-0.5,1.2-1.2,2.3-2.1,3.3c-1,1-2.1,1.8-3.4,2.3
	c-1.2,0.5-2.6,0.8-3.9,0.8h-5.3L63.1,199.8z M66.2,196.6h2.2c1,0,1.9-0.2,2.8-0.5c0.9-0.4,1.7-0.9,2.3-1.6c0.7-0.7,1.2-1.4,1.6-2.3
	c0.3-0.9,0.5-1.8,0.5-2.8c0-0.9-0.2-1.9-0.5-2.8c-0.3-0.9-0.9-1.7-1.6-2.3c-0.6-0.7-1.4-1.2-2.3-1.6c-0.9-0.4-1.9-0.5-2.8-0.5h-2.2
	L66.2,196.6z M91.8,179.4v3h-7.4v5.6H90v3h-5.6v5.6h7.4v3.1H81.3v-20.4H91.8z M97.2,179.4v17.2h7.4v3.1H94.1v-20.4H97.2z
	 M124.8,179.4v3h-7.4v5.6h5.6v3h-5.6v5.6h7.4v3.1h-10.4v-20.4C114.4,179.4,124.8,179.4,124.8,179.4z M136.7,196.8
	c0.6,0,1.2-0.1,1.8-0.2c0.6-0.1,1.1-0.4,1.6-0.7v3.4c-0.5,0.2-1.1,0.3-1.7,0.5c-0.6,0.1-1.2,0.2-1.8,0.2c-1.4,0-2.7-0.2-4-0.8
	c-1.3-0.6-2.4-1.4-3.4-2.3c-1-1-1.7-2.1-2.3-3.3c-0.5-1.3-0.8-2.6-0.8-4c0-4.2,2.5-8,6.4-9.7c1.3-0.5,2.6-0.8,4-0.7
	c0.6,0,1.2,0.1,1.8,0.2c0.6,0.1,1.1,0.2,1.7,0.4v3.4c-0.5-0.3-1.1-0.6-1.6-0.7c-0.6-0.1-1.2-0.2-1.8-0.2c-0.9,0-1.9,0.2-2.8,0.6
	c-0.9,0.4-1.7,1-2.4,1.6c-0.7,0.7-1.3,1.5-1.6,2.3c-0.4,0.9-0.6,1.9-0.6,2.8c0,1,0.2,1.9,0.6,2.8c0.4,0.9,1,1.7,1.6,2.4
	c0.6,0.7,1.4,1.3,2.3,1.5C134.8,196.7,135.8,196.8,136.7,196.8z M145.1,197.8c-0.7-0.7-1.2-1.4-1.6-2.3c-0.4-0.9-0.6-1.8-0.6-2.8
	v-13.3h3v13.3c0,0.6,0.1,1.1,0.3,1.6c0.2,0.5,0.6,1,1,1.3c0.4,0.4,0.8,0.7,1.3,0.9c0.5,0.2,1,0.3,1.6,0.3c0.6,0,1.1-0.1,1.6-0.3
	c0.5-0.2,1-0.5,1.3-0.9c0.4-0.4,0.7-0.8,0.9-1.3c0.2-0.5,0.3-1.1,0.3-1.6v-13.3h3.1v13.3c0,1-0.2,1.9-0.6,2.8
	c-0.4,0.9-0.9,1.6-1.6,2.3c-0.6,0.7-1.4,1.3-2.3,1.6c-0.9,0.4-1.8,0.6-2.8,0.6c-0.9,0-1.9-0.2-2.8-0.6
	C146.6,199,145.8,198.5,145.1,197.8z M174,179.4v20.4h-3V195h-7l-3,4.8h-3.7l13-20.5L174,179.4z M166,191.9h5v-7.8L166,191.9z
	 M177.5,199.8v-20.4h5.3c1.3,0,2.7,0.2,3.9,0.7c1.3,0.5,2.4,1.3,3.3,2.3c1,0.9,1.8,2.1,2.3,3.3c0.5,1.2,0.7,2.6,0.7,3.9
	c0,1.3-0.2,2.7-0.7,3.9c-0.5,1.2-1.3,2.3-2.2,3.3c-0.9,1-2.1,1.8-3.3,2.3c-1.2,0.5-2.6,0.8-3.9,0.8h-5.3L177.5,199.8z M180.7,196.6
	h2.2c1,0,1.9-0.2,2.8-0.5c0.9-0.4,1.7-0.9,2.3-1.6c0.7-0.7,1.2-1.4,1.6-2.3c0.3-0.9,0.5-1.8,0.5-2.8c0-0.9-0.2-1.9-0.5-2.8
	c-0.3-0.9-0.9-1.7-1.6-2.3c-0.6-0.7-1.4-1.2-2.3-1.6c-0.9-0.4-1.9-0.5-2.8-0.5h-2.2L180.7,196.6z M197.7,196.9c-1-1-1.7-2.1-2.3-3.3
	c-0.5-1.3-0.8-2.6-0.8-4c0-4.2,2.5-8,6.4-9.7c2.6-1,5.5-1,8,0c1.3,0.5,2.4,1.3,3.4,2.3c2,1.9,3.1,4.6,3,7.4c0,1.4-0.3,2.7-0.8,4
	c-0.5,1.2-1.3,2.4-2.3,3.3c-1,1-2.1,1.8-3.4,2.3c-2.6,1-5.5,1-8,0C199.8,198.7,198.6,197.9,197.7,196.9L197.7,196.9z M199.8,184.3
	c-0.6,0.7-1.2,1.5-1.6,2.4c-0.4,0.9-0.6,1.9-0.6,2.9c0,0.9,0.2,1.9,0.6,2.8c0.4,0.9,0.9,1.7,1.6,2.4c0.7,0.7,1.5,1.3,2.4,1.6
	c0.9,0.3,1.9,0.5,2.9,0.5c1,0,1.9-0.2,2.8-0.5c0.9-0.4,1.7-0.9,2.4-1.6c0.7-0.7,1.3-1.5,1.7-2.4c0.4-0.9,0.5-1.8,0.5-2.8
	c0-1-0.2-1.9-0.6-2.8c-0.4-0.9-1-1.7-1.6-2.4c-0.6-0.7-1.4-1.3-2.3-1.6c-0.9-0.3-1.9-0.5-2.9-0.5c-1,0-2,0.2-2.9,0.5
	C201.3,183.1,200.5,183.6,199.8,184.3L199.8,184.3z M232.2,199.8h-3.5l-4.4-8.7h-3.4v8.7h-3v-20.4h7.5c1.6,0,3.1,0.6,4.2,1.7
	c0.6,0.6,1,1.2,1.4,1.9c0.3,0.7,0.5,1.5,0.5,2.3c0,0.6-0.1,1.1-0.3,1.7c-0.2,0.6-0.4,1.1-0.7,1.6c-0.3,0.5-0.7,0.9-1.1,1.2
	c-0.4,0.3-0.9,0.6-1.4,0.9L232.2,199.8z M225.2,188c0.4,0,0.7-0.1,1.1-0.2c0.4-0.2,0.7-0.4,1-0.7c0.3-0.2,0.5-0.5,0.6-0.8
	c0.2-0.7,0.2-1.4,0-2.1c-0.1-0.4-0.3-0.7-0.6-1c-0.3-0.2-0.6-0.4-0.9-0.6c-0.3-0.2-0.7-0.3-1.1-0.3h-4.4v5.7L225.2,188z"/>
</svg>
