<?xml version="1.0" encoding="utf-8"?>
<!-- Generator: Adobe Illustrator 25.1.0, SVG Export Plug-In . SVG Version: 6.00 Build 0)  -->
<svg version="1.1" id="Layer_1" xmlns="http://www.w3.org/2000/svg" xmlns:xlink="http://www.w3.org/1999/xlink" x="0px" y="0px"
	 viewBox="0 0 300 200" style="enable-background:new 0 0 300 200;" xml:space="preserve">
<style type="text/css">
	.st0{fill:#FFFFFF;}
	.st1{fill:#1F00B7;}
	.st2{fill:#011728;}
	.st3{fill:#001222;}
	.st4{fill:#011B27;}
	.st5{fill:#011A26;}
	.st6{fill:#0C1E30;}
</style>
<g>
	<g id="_x23_ffffffff">
		<path class="st0" d="M126,156.9c0.7-0.5,1.5-0.8,2.4-0.7c0.7,0.1,0.9,0.8,0.8,1.4c-0.2,1.7-1.2,3.3-2.4,4.6
			c-2,2.3-4.7,4.1-7.4,5.7c0.8-2.6,1.9-5.1,3.3-7.4C123.6,159.2,124.6,157.9,126,156.9z"/>
	</g>
	<g id="_x23_013240ff">
		<path class="st1" d="M101.5,142.1c2-0.1,4.2-0.1,6.2-0.8c0.2,0.2,0.2,0.3,0.4,0.5c-0.8,1-1.9,1.7-3.1,2.3c-1.9,0.8-4,1-6.1,1.1
			c-3.2,0-6.4,0-9.6,0c-0.4,0-0.7,0.3-1,0.5c-1.6,1.3-2.7,3-3.7,4.8c-1.7,3.2-3,6.5-4.4,9.9c-2.3,5.5-4.2,11.1-6.5,16.6
			c-1,2.4-2,4.9-3.9,6.9c-1.4,1.5-3.3,2.6-5.4,3c-1.1,0.2-2.2,0.2-3.3,0.2c-0.2-0.2-0.2-0.4-0.4-0.6c1.7-1.1,2.7-2.8,3.6-4.5
			c2-3.8,3.3-7.9,4.9-11.8c1.5-3.9,3.1-7.7,4.7-11.5c0.8-2,1.7-4.1,2.9-5.9c1.7-2.7,4-5,6.8-6.7c0.5-0.2,0.8-0.5,1.3-0.8
			c-3.9,0.1-8-0.2-11.9,0.3c-3.3,0.4-6.5,1.1-9.4,2.7c-2.2,1.1-4,3-4.9,5.2c-0.7,1.8-0.7,3.9,0.2,5.7c-0.5,0.4-1.1,0.1-1.7,0
			c-1.8-0.5-3.3-1.9-3.7-3.6c-0.5-1.9,0-3.9,1.1-5.6c1.5-2.4,4.1-4.1,6.8-5.2c3.7-1.5,7.7-2.2,11.8-2.4c0.7,0.2,1.4,0.2,2.1,0.2
			c7.8,0,15.5,0,23.4,0c1.4,0,2.7,0,4-0.1c-2-0.2-3.9-0.1-5.8-0.1c-5.9,0-11.8,0-17.7,0c-1.6,0-3.3,0.1-4.9-0.1
			c0.5,0,0.8-0.1,1.3-0.1C84.4,142.1,93,142.1,101.5,142.1z"/>
		<path class="st1" d="M147.1,145.7c3-2.2,6.7-3.4,10.5-3.7c2.8-0.2,5.8-0.3,8.5,0.5c1.3,0.5,2.7,1.2,3.2,2.4c0.4,1.1,0.1,2.1-0.6,3
			c-1.2,1.6-3,2.8-4.8,3.6c-0.2-0.1-0.4-0.3-0.5-0.4c1.1-1.1,2-2.6,1.9-4.1c0.1-1.4-1.1-2.4-2.4-3c-2.2-0.8-4.7-0.8-6.9-0.2
			c-2,0.5-3.9,1.7-5.3,3.2c-2,2-3.4,4.3-4.6,6.7c-0.1,0.2-0.2,0.4-0.2,0.6c0,0.1,0,0.2,0,0.3c2.1,0,4.3,0,6.4,0
			c1.9,0,3.8,0.1,5.6-0.1c-0.5-0.1-0.8-0.2-1.3-0.2c1.7-0.1,3.4-0.1,5.1-0.3c-0.2,0.5-0.5,1.1-0.6,1.6c-2.5,0.4-4.4,2.1-5.8,3.9
			c-2.1,2.7-3.7,5.8-4.7,9c-0.5,1.8-0.9,3.6-0.7,5.5c0.1,0.8,0.5,1.6,1.3,1.9c1.3,0.4,2.5-0.3,3.4-1.1c1.9-1.5,3.3-3.6,4.3-5.7
			c1.8-3.6,3-7.6,2.9-11.7c-0.1-0.4,0.4-0.6,0.7-0.8c0.6-0.2,1.3-0.2,1.9-0.4c2.7-0.5,5.5-1.2,8.2-1.9c1.4-0.3,2.9-0.7,4.3-0.3
			c1.1,0.3,1.3,1.5,1.1,2.4c-0.5,2.4-1.6,4.7-2.6,7c1.4-1.8,2.7-3.7,4.5-5.4c1.8-1.7,3.9-3.4,6.4-4c1.4-0.3,3-0.4,4.2,0.2
			c0.9,0.5,1.5,1.4,1.4,2.4c-0.1,1.8-0.9,3.6-1.7,5.2c-1.7,3.4-3.6,6.7-5.1,10.3c-0.9,2.3-1.8,4.6-1.7,7.1c0,0.7,0.2,1.3,0.5,1.9
			c-0.2,0.1-0.5,0.2-0.7,0.3c-1.6-0.4-3.1-1.1-3.9-2.4c-1.1-1.7-1.1-3.9-0.6-5.8c0.9-3.4,2.7-6.5,4.2-9.7c0.9-1.8,2-3.6,2.4-5.5
			c-0.2-0.5-0.7-0.8-1.2-0.6c-1.2,0.5-2.1,1.4-3,2.2c-2.9,2.9-5.3,6.1-7.3,9.6c-1.7,3-3.2,6.1-4.7,9c-1.9,0-3.8,0-5.6,0
			c2.4-5.5,4.9-11,7.1-16.5c0.4-1.1,0.9-2.2,1.2-3.3c0.2-0.5,0.2-1.3-0.4-1.7c-0.4-0.1-0.8,0-1.1,0c-1.2,0.2-2.4,0.4-3.6,0.6
			c-0.1,2.1-0.7,4.1-1.4,6.1c-1.1,3.1-2.8,6-4.9,8.6c-1.9,2.3-4.2,4.4-7.1,5.7c-2.3,1-4.9,1.4-7.3,0.4c-1.6-0.7-2.5-2.2-2.7-3.8
			c-0.4-3.5,0.8-7,2.5-10.1c1.9-3.3,4.4-6.4,8-8c0.2-0.1,0.2-0.2,0.2-0.3l-0.2,0.3c-0.8,0.1-1.7,0.2-2.6,0.2
			c-0.7-0.2-1.4-0.2-2.1-0.2c-1.6,0-3.1-0.1-4.7,0.1c1.8,0.2,3.7,0,5.5,0.2c-1.7,0.1-3.6,0-5.3,0c-1.7,4.2-3.3,8.4-4.9,12.7
			c-1.3,3.3-2.4,6.6-3.9,9.8c-1.1,2.3-2.4,4.6-4.7,6.1c-1.7,1.1-3.9,1.4-6,1.3h0.2c0.8-0.1,1.6-0.2,2.4-0.2
			c-0.8-0.1-1.7-0.2-2.6-0.2c2.3-1.8,3.3-4.6,4.5-7.1c1-2.3,1.9-4.6,2.8-6.8c-3,2.9-6.6,5.5-10.8,6.4c-2.3,0.5-4.9,0.8-7.1-0.3
			c-1.7-0.8-2.7-2.7-2.8-4.6c-0.2-3.2,0.9-6.3,2.4-9.1c1.3-2.4,3-4.6,5-6.5c2.7-2.4,6.2-4.4,10.1-4.6c1.1,0,2.3,0.1,3.2,0.8
			c1,0.7,1.1,1.9,0.9,3c-0.4,2-1.7,3.8-3.2,5.2c-3.2,3.2-7.2,5.4-11.4,7.4c-0.3,1.4-0.6,2.9-0.4,4.3c0.2,0.9,0.8,1.7,1.8,1.8
			c1.7,0.2,3.3-0.2,4.8-0.9c3-1.4,5.5-3.6,7.7-6c0.8-0.9,1.7-1.7,2-2.7c1.2-3.1,2.5-6.3,3.8-9.4c-1.1,0.1-2.3,0.1-3.3,0.4
			c-0.1-0.2-0.2-0.5-0.2-0.5c1.2-1.2,2.9-2,4.6-2.2C141.5,151.3,143.9,148,147.1,145.7 M126,156.9c-1.4,0.9-2.4,2.2-3.2,3.6
			c-1.5,2.3-2.6,4.9-3.3,7.4c2.7-1.6,5.3-3.3,7.4-5.7c1.1-1.3,2.2-2.9,2.4-4.6c0.1-0.5-0.2-1.3-0.8-1.4
			C127.4,156.2,126.6,156.5,126,156.9z"/>
		<path class="st1" d="M114.3,145.6c1.8-0.4,3.6-0.7,5.5-1c-1.3,3.3-2.9,6.4-4.4,9.6c-1.9,3.8-3.7,7.7-5.5,11.5
			c-1.4,3.2-2.8,6.4-3.8,9.7c-0.5,2-1,4.2-0.4,6.2c-0.2,0.1-0.5,0.2-0.7,0.3c-1.4-0.5-2.7-1.1-3.5-2.1c-0.7-0.8-1.1-1.8-1.2-2.8
			c0.3-0.8,0.3-1.7,0-2.6c0.1-0.5,0.2-1.1,0.4-1.7c-2.1,2.1-4.6,3.9-7.4,5.2c-2.4,1.1-5.2,1.7-7.7,1c-1.6-0.4-3-1.5-3.4-3
			c-0.8-2.4-0.4-4.9,0.3-7.3c1.2-3.8,3.5-7.4,6.4-10.2c2.7-2.5,6.2-4.5,10.1-4.8c1.3,0,2.8,0.1,3.7,1.1c0.8,0.8,0.7,2,0.5,3
			c-0.5,2-1.9,3.7-3.4,5.2c-3.2,3-7.1,5.2-11.1,7.1c-0.3,1.4-0.6,3-0.5,4.4c0.1,0.8,0.8,1.7,1.7,1.7c1.7,0.2,3.3-0.4,4.7-1.1
			c2.5-1.4,4.6-3.3,6.4-5.5c0.8-1,1.7-2,2.3-3.3c3-6.4,6.1-13,9.3-19.3C113,146.3,113.6,145.8,114.3,145.6 M95.7,157
			c-1.5,1.1-2.6,2.7-3.6,4.2c-1.3,2.1-2.2,4.4-2.9,6.7c3.3-1.9,6.4-4.2,8.6-7.2c0.7-1.1,1.2-2.3,1.1-3.6c0-0.5-0.5-0.8-0.9-0.9
			C97.1,156.2,96.4,156.5,95.7,157z"/>
		<path class="st1" d="M214.8,155.7c2.8-1.4,6.1-2.1,9.3-1.5c0.9,0.2,1.9,0.6,2.4,1.4c0.5,1,0.2,2.2-0.5,3c-1.2,1.5-3,2.4-4.9,3.1
			c-0.2-0.2-0.4-0.3-0.5-0.5c1.1-1,2-2.4,2-3.8c0-0.7-0.5-1.3-1.2-1.3c-1.5-0.2-2.9,0.8-3.9,1.7c-2.3,2-3.9,4.7-5.2,7.4
			c-1.1,2.5-2,5.1-2.1,7.8c0,0.9,0.1,1.9,0.8,2.5c0.6,0.5,1.5,0.6,2.3,0.5c1.7-0.3,3.3-1.2,4.6-2.3c1.4-1.1,2.7-2.2,3.6-3.6
			c2.1-4.7,4.9-9.4,9.5-12.5c3.3-2.4,7.5-3.5,11.6-3.4c1.9,0.1,3.9,0.2,5.6,1.2c-2.4,4.9-4.6,9.9-6.5,15c-1.1,2.8-1.7,5.7-1.9,8.6
			c-0.1,0.9,0.1,1.9,0.4,2.8c-0.8,0.4-1.7,0-2.4-0.3c-1.4-0.6-2.5-1.9-2.8-3.3c-0.4-1.7,0.1-3.6,0.5-5.3c-1.3,1.6-2.7,3.2-4.4,4.3
			c-1.8,1.3-4.1,2.3-6.4,2.1c-1.3-0.1-2.7-0.6-3.3-1.7c-0.7-1.1-0.8-2.3-0.8-3.5c-2.4,2.5-5.6,4.5-9.2,5.1c-2,0.2-4.2,0.2-5.8-0.9
			c-1.1-0.7-1.7-1.9-2-3.1c-2.1,2-4.7,3.6-7.7,4c-1.6,0.2-3.5,0.2-4.7-1.1c-1.1-1.1-1.1-2.7-0.8-4.1c0.7-3.2,2.2-6.1,3.6-9
			c1.4-2.8,2.8-5.5,4.2-8.3c0.4-0.8,1.1-1.3,1.9-1.4c1.9-0.4,3.8-0.7,5.8-1c-2.7,5.2-5.4,10.5-7.7,16c-0.5,1.4-1.1,2.7-1.4,4.2
			c-0.2,0.6,0.2,1.3,0.9,1.4c0.8,0.2,1.4-0.2,2.1-0.5c1.3-0.7,2.4-1.6,3.4-2.6c0.2-0.2,0.5-0.5,0.5-0.8c0.5-3.3,1.8-6.4,3.7-9.2
			C209.1,160,211.5,157.3,214.8,155.7 M235.9,158.1c-2.4,1.8-4.2,4.2-5.8,6.8c-1.5,2.7-2.8,5.4-3.3,8.3c-0.1,0.7-0.4,1.6,0.3,2.2
			c0.6,0.5,1.4,0.2,2-0.1c1.6-0.7,2.9-2,3.9-3.2c2.1-2.6,3.7-5.5,5.1-8.5c1.1-2.4,2.4-4.9,3.6-7.2
			C239.6,156.1,237.4,156.8,235.9,158.1z"/>
	</g>
	<g id="_x23_011728ff">
		<path class="st2" d="M73.5,142.3c0.4,0,0.7-0.1,1.1-0.1c1.6,0.2,3.3,0.1,4.9,0.1c5.9,0,11.8,0,17.7,0c2,0,3.9-0.1,5.8,0.1
			c-1.4,0.2-2.7,0.2-4,0.1c-7.8,0-15.5,0-23.4,0C74.9,142.5,74.2,142.4,73.5,142.3z"/>
	</g>
	<g id="_x23_013140ff">
		<path class="st1" d="M206.3,144.6c1.1-0.3,2.5,0.3,2.8,1.4c0.5,1.8-0.9,3.8-2.8,4.3c-0.8,0.2-1.8,0-2.4-0.6
			c-0.7-0.8-0.7-1.9-0.4-2.8C204,145.9,205,144.9,206.3,144.6z"/>
	</g>
	<g id="_x23_001222ff">
		<path class="st3" d="M146,154.6c3.6,0,7.2,0,10.8,0c0.5,0.1,0.8,0.2,1.3,0.2c-1.9,0.2-3.8,0.1-5.6,0.1c-2.1,0-4.3,0-6.4,0
			C146,154.8,146,154.6,146,154.6z"/>
	</g>
	<g id="_x23_011b27ff">
		<path class="st4" d="M144.5,156.8c1.5-0.2,3.1-0.1,4.7-0.1c0.7,0,1.4,0.1,2.1,0.2c-0.5,0.1-0.8,0.1-1.3,0.1
			C148.3,156.8,146.4,157,144.5,156.8z"/>
	</g>
	<g id="_x23_011a26ff">
		<path class="st5" d="M100.3,174.5c0.3,0.8,0.3,1.7,0,2.6C100.2,176.3,100.2,175.4,100.3,174.5z"/>
	</g>
	<g id="_x23_0c1e30ff">
		<path class="st6" d="M125.1,186.3L125.1,186.3c0.9,0.2,1.7,0.2,2.7,0.2c-0.8,0.1-1.6,0.2-2.4,0.2
			C125.4,186.7,125.2,186.4,125.1,186.3z"/>
	</g>
	<g id="_x23_01323fff">
		<path class="st1" d="M118.1,197c3.3-0.1,6.6,0,9.9-0.1c4,0.1,8-0.1,12-0.1c6.7,0,13.6,0,20.3,0c3.3,0,6.7,0.1,9.9,0.1
			c5.5,0,11.1,0,16.7,0.1c-1.4,0.2-2.7,0.2-4.1,0.2c-2.7,0.1-5.5-0.1-8.3,0.1c2.6,0.2,5.1,0,7.7,0.1c4.9,0,9.9,0.1,14.8,0
			c1,0.1,2,0,3-0.2c6,0,12.1,0.1,18,0.2c-2,0.2-3.9,0.1-5.8,0.2c-3,0.1-6-0.1-9,0.1c4.9,0.2,9.9,0,14.8,0.2c1.7-0.1,3.5,0.2,5.2-0.2
			c3.9,0,7.8,0.1,11.7,0.2c-2.7,0.2-5.5,0-8.3,0.2c2.1,0.2,4.2,0.1,6.4,0.2c1.7,0,3.4,0.2,5.2-0.2c6.2,0.1,12.4,0.2,18.7,0.4
			c2.4,0.2,4.7,0,7,0.5c-0.8,0.2-1.7,0.2-2.5,0.2c0.7-0.1,1.4-0.2,2.1-0.3c-2-0.2-3.9,0.2-5.8,0.2c0.9,0.1,1.9,0.2,2.9,0.2
			c-6.9,0.3-13.7,0.4-20.6,0.5c-18,0.3-36.2,0.5-54.2,0.5c-4.1,0.1-8.2,0.1-12.3,0.1c-1.6-0.4-3.3-0.2-4.9-0.2
			c-10.5-0.1-20.9,0-31.3,0c-3,0.1-5.8,0.1-8.8,0c-0.7,0-1.3,0.2-2,0.2c-4.6,0-9.2,0-13.8-0.1c-21.2-0.1-42.2-0.3-63.4-0.7
			c-4.3-0.2-8.6-0.2-13-0.6v-0.2c4.6-0.4,9.2-0.4,13.7-0.6c16.7-0.3,33.4-0.5,50.1-0.6c1.5,0.5,3.2,0.2,4.8,0.3
			c4.8,0,9.6,0,14.3-0.1c1.9,0,3.8,0.1,5.6-0.1C122.5,197.1,120.3,197.4,118.1,197 M77,197.5c1.9,0.2,3.7,0.1,5.6,0.1
			c1.4-0.1,2.9,0.1,4.2-0.1C83.6,197.3,80.3,197.3,77,197.5 M61.6,197.6c1.4,0.2,2.7,0.1,4,0.1c2.5-0.1,4.9,0.1,7.4-0.1
			c-1.3-0.2-2.6-0.1-3.8-0.1C66.7,197.6,64.1,197.5,61.6,197.6z"/>
	</g>
	<g id="_x23_001a2aff">
		<path class="st1" d="M100,197.1c6.1,0,12.1-0.1,18.2-0.1c2.2,0.4,4.4,0.1,6.6,0.2c-1.9,0.2-3.8,0.1-5.6,0.1c-4.8,0-9.6,0-14.3,0.1
			C103.2,197.3,101.5,197.6,100,197.1z"/>
		<path class="st1" d="M174.7,197.3c2.7-0.2,5.5,0,8.3-0.1c1.4,0,2.7,0.1,4.1-0.2c4.3,0,8.6,0,13,0.1c-1,0.2-2,0.3-3,0.2
			c-4.9,0-9.9-0.1-14.8,0C179.8,197.3,177.2,197.5,174.7,197.3z"/>
	</g>
	<g id="_x23_011826ff">
		<path class="st1" d="M77,197.5c3.3-0.2,6.6-0.2,9.9,0c-1.4,0.2-2.9,0.1-4.2,0.1C80.8,197.6,78.9,197.6,77,197.5z"/>
	</g>
	<g id="_x23_011f2aff">
		<path class="st1" d="M203.2,197.5c3-0.2,6,0,9-0.1c2-0.1,3.9,0,5.8-0.2c1.7,0,3.3,0,5.1,0.1c-1.7,0.5-3.4,0.2-5.2,0.2
			C213.1,197.5,208.2,197.6,203.2,197.5z"/>
	</g>
	<g id="_x23_011d2cff">
		<path class="st1" d="M61.6,197.6c2.5-0.2,5.1-0.1,7.7-0.1c1.3,0,2.6-0.1,3.8,0.1c-2.5,0.2-4.9,0.1-7.4,0.1
			C64.3,197.8,63,197.8,61.6,197.6z"/>
	</g>
	<g id="_x23_011d2dff">
		<path class="st1" d="M226.6,197.6c2.7-0.2,5.5,0.1,8.3-0.2c1.1,0,2.2,0,3.3,0c-1.7,0.4-3.4,0.2-5.2,0.2
			C230.8,197.7,228.7,197.8,226.6,197.6z"/>
	</g>
	<g id="_x23_011a2aff">
		<path class="st1" d="M257.5,198.6c2-0.1,3.9-0.4,5.8-0.2c-0.7,0.2-1.4,0.2-2.1,0.3c-0.3,0-0.6,0.1-0.8,0.1
			C259.4,198.7,258.5,198.6,257.5,198.6z"/>
	</g>
	<g id="_x23_001c27ff">
		<path class="st1" d="M126.3,199.8c0.7-0.1,1.3-0.2,2-0.2c3,0,5.8,0.1,8.8,0c10.5,0,20.9,0,31.3,0c1.7,0.1,3.3-0.2,4.9,0.2h-0.5
			c-12.1-0.1-24.3,0-36.4,0c-3.3,0-6.7-0.1-10,0H126.3z"/>
	</g>
	<g id="_x23_9cbfbbff">
		<path class="st1" d="M126.4,199.8c3.3-0.1,6.7,0,10,0v0.2h-9.6L126.4,199.8z"/>
	</g>
	<g id="_x23_98b3b2ff">
		<path class="st1" d="M136.4,199.8c12.1,0,24.3,0,36.4,0l0.5,0.2h-36.9V199.8z"/>
	</g>
</g>
</svg>
